<?xml version="1.0" encoding="UTF-8"?>
<svg xmlns="http://www.w3.org/2000/svg" xmlns:xlink="http://www.w3.org/1999/xlink" width="115px" height="35px" viewBox="0 0 113 35" version="1.1">
<g id="surface1">
<path style=" stroke:none;fill-rule:nonzero;fill:rgb(0%,0%,0%);fill-opacity:1;" d="M 88.015625 35.125 C 58.675781 35.125 29.402344 35.125 0.125 35.125 C 0.125 23.460938 0.125 11.792969 0.125 0.125 C 37.792969 0.125 75.457031 0.125 113.125 0.125 C 113.125 11.792969 113.125 23.460938 113.125 35.125 C 104.777344 35.125 96.425781 35.125 88.015625 35.125 M 80.480469 16.425781 C 80.480469 16.425781 80.488281 16.425781 80.503906 16.484375 C 80.527344 16.523438 80.5625 16.546875 80.605469 16.550781 C 80.605469 16.550781 80.605469 16.554688 80.621094 16.640625 C 81.160156 17.621094 81.699219 18.605469 82.246094 19.671875 C 82.253906 19.726562 82.265625 19.78125 82.265625 19.9375 C 82.296875 20.28125 82.332031 20.625 82.363281 20.972656 C 82.363281 20.972656 82.359375 20.972656 82.265625 20.988281 C 82.097656 21.128906 81.929688 21.269531 81.761719 21.410156 C 81.957031 21.472656 82.152344 21.582031 82.347656 21.589844 C 83.058594 21.609375 83.769531 21.597656 84.480469 21.597656 C 85.191406 21.597656 85.902344 21.605469 86.613281 21.589844 C 86.734375 21.589844 86.855469 21.488281 86.976562 21.4375 C 86.933594 21.332031 86.902344 21.152344 86.839844 21.140625 C 86.101562 20.996094 86.003906 20.335938 85.753906 19.804688 C 85.527344 19.320312 85.335938 18.820312 85.128906 18.320312 C 85.128906 18.320312 85.121094 18.320312 85.109375 18.230469 C 84.613281 17.332031 84.117188 16.4375 83.621094 15.542969 C 83.621094 15.542969 83.617188 15.542969 83.605469 15.453125 C 83.273438 15.066406 82.945312 14.675781 82.617188 14.277344 C 82.617188 14.277344 82.609375 14.28125 82.605469 14.195312 C 82.632812 14.117188 82.65625 14.042969 82.757812 13.921875 C 83.296875 13.519531 83.835938 13.121094 84.441406 12.714844 C 84.503906 12.648438 84.566406 12.582031 84.710938 12.5 C 84.8125 12.449219 84.910156 12.398438 85.078125 12.355469 C 85.132812 12.320312 85.183594 12.285156 85.246094 12.253906 C 85.246094 12.253906 85.25 12.242188 85.34375 12.242188 C 85.523438 12.1875 85.699219 12.132812 85.96875 12.082031 C 86.289062 11.679688 86.070312 11.515625 85.679688 11.511719 C 84.65625 11.5 83.636719 11.523438 82.507812 11.515625 C 82.34375 11.511719 82.167969 11.472656 82.015625 11.515625 C 81.84375 11.5625 81.691406 11.679688 81.527344 11.769531 C 81.664062 11.886719 81.792969 12.003906 81.929688 12.121094 C 82.035156 12.207031 82.144531 12.292969 82.25 12.460938 C 82.246094 12.519531 82.242188 12.578125 82.164062 12.675781 C 82.066406 12.875 81.96875 13.070312 81.863281 13.269531 C 81.863281 13.269531 81.863281 13.277344 81.804688 13.292969 C 81.769531 13.316406 81.75 13.351562 81.738281 13.394531 C 81.738281 13.394531 81.738281 13.410156 81.683594 13.425781 C 81.648438 13.449219 81.628906 13.480469 81.617188 13.523438 C 81.617188 13.523438 81.617188 13.535156 81.542969 13.554688 C 81.484375 13.636719 81.421875 13.714844 81.304688 13.816406 C 81.269531 13.839844 81.25 13.875 81.160156 13.945312 C 80.765625 14.277344 80.367188 14.609375 79.96875 14.941406 C 79.921875 13.824219 79.546875 12.695312 80.652344 11.921875 C 80.601562 11.277344 80.105469 11.542969 79.621094 11.511719 C 78.609375 11.519531 77.601562 11.527344 76.484375 11.511719 C 76.140625 11.515625 75.800781 11.519531 75.457031 11.519531 C 74.578125 11.519531 73.703125 11.503906 72.824219 11.519531 C 72.710938 11.519531 72.53125 11.640625 72.503906 11.742188 C 72.480469 11.832031 72.59375 12.058594 72.679688 12.074219 C 73.457031 12.242188 73.4375 12.832031 73.460938 13.4375 C 73.503906 14.460938 73.597656 15.480469 73.625 16.503906 C 73.644531 17.332031 73.679688 18.175781 73.5625 18.992188 C 73.429688 19.894531 72.394531 20.585938 71.527344 20.449219 C 70.304688 20.253906 69.699219 19.949219 69.699219 18.535156 C 69.699219 16.738281 69.828125 14.941406 69.9375 13.144531 C 69.96875 12.695312 70.070312 12.222656 70.648438 12.089844 C 70.722656 12.074219 70.757812 11.875 70.792969 11.65625 C 70.691406 11.605469 70.589844 11.511719 70.488281 11.511719 C 69.296875 11.507812 68.109375 11.523438 66.820312 11.515625 C 66.6875 11.519531 66.554688 11.523438 66.332031 11.511719 C 66.171875 11.59375 66.015625 11.679688 65.847656 11.808594 C 65.859375 11.835938 65.882812 11.851562 65.925781 11.929688 C 65.96875 11.980469 66.015625 12.027344 66.152344 12.113281 C 66.289062 12.386719 66.546875 12.664062 66.546875 12.9375 C 66.535156 14.949219 66.457031 16.960938 66.433594 18.976562 C 66.417969 20.011719 66.914062 20.816406 67.8125 21.265625 C 69.652344 22.179688 71.554688 22.128906 73.394531 21.289062 C 74.347656 20.851562 75.0625 20.078125 75.070312 18.917969 C 75.074219 17.609375 75.011719 16.300781 74.984375 14.992188 C 74.96875 14.257812 74.941406 13.519531 74.96875 12.785156 C 74.984375 12.363281 75.234375 12.136719 75.699219 12.101562 C 76.199219 12.0625 76.386719 12.324219 76.449219 12.738281 C 76.523438 13.210938 76.597656 13.691406 76.59375 14.167969 C 76.578125 16.265625 76.535156 18.363281 76.480469 20.546875 C 76.480469 20.609375 76.476562 20.667969 76.402344 20.777344 C 76.164062 20.988281 75.925781 21.199219 75.6875 21.410156 C 75.714844 21.457031 75.746094 21.503906 75.773438 21.550781 C 77.40625 21.550781 79.035156 21.550781 80.769531 21.550781 C 80.6875 21.375 80.65625 21.175781 80.5625 21.132812 C 79.933594 20.863281 79.835938 20.335938 79.839844 19.746094 C 79.839844 18.972656 79.796875 18.191406 79.855469 17.421875 C 79.886719 17.039062 80.097656 16.667969 80.292969 16.296875 C 80.316406 16.296875 80.335938 16.296875 80.382812 16.355469 C 80.40625 16.390625 80.441406 16.414062 80.480469 16.425781 M 105.265625 19.050781 C 105.296875 19.027344 105.308594 18.992188 105.324219 18.871094 C 105.328125 18.8125 105.335938 18.753906 105.40625 18.648438 C 105.417969 18.539062 105.429688 18.425781 105.453125 18.261719 C 105.453125 18.261719 105.46875 18.203125 105.542969 18.152344 C 105.527344 17.921875 105.515625 17.691406 105.5 17.464844 C 105.324219 17.625 105.148438 17.78125 104.980469 17.949219 C 104.957031 17.96875 104.96875 18.027344 104.964844 18.070312 C 104.964844 18.070312 104.964844 18.066406 104.910156 18.09375 C 104.871094 18.121094 104.863281 18.15625 104.855469 18.257812 C 104.855469 18.257812 104.839844 18.320312 104.769531 18.359375 C 104.636719 18.558594 104.507812 18.757812 104.351562 19.015625 C 104.351562 19.015625 104.335938 19.074219 104.261719 19.113281 C 103.785156 19.480469 103.308594 19.847656 102.828125 20.214844 C 102.828125 20.214844 102.828125 20.21875 102.753906 20.230469 C 102.699219 20.269531 102.640625 20.308594 102.496094 20.351562 C 102.441406 20.363281 102.386719 20.371094 102.226562 20.359375 C 101.351562 20.652344 100.839844 20.492188 100.550781 19.71875 C 100.542969 17.570312 100.539062 15.417969 100.554688 13.171875 C 100.558594 12.636719 100.75 12.21875 101.300781 11.902344 C 101.359375 11.59375 101.21875 11.496094 100.921875 11.5 C 99.675781 11.515625 98.425781 11.523438 97.078125 11.511719 C 96.832031 11.519531 96.589844 11.542969 96.347656 11.539062 C 95.449219 11.53125 94.554688 11.503906 93.65625 11.511719 C 93.507812 11.511719 93.359375 11.667969 93.207031 11.75 C 93.316406 11.875 93.402344 12.070312 93.535156 12.113281 C 94.027344 12.265625 94.132812 12.640625 94.175781 13.074219 C 94.191406 13.261719 94.191406 13.453125 94.199219 13.640625 C 94.277344 15.183594 94.445312 16.730469 94.398438 18.269531 C 94.367188 19.375 94.054688 20.296875 92.566406 20.375 C 91.171875 20.449219 90.359375 19.859375 90.394531 18.453125 C 90.4375 16.65625 90.546875 14.859375 90.640625 13.066406 C 90.667969 12.566406 90.933594 12.214844 91.496094 12.003906 C 91.808594 11.519531 91.382812 11.515625 91.136719 11.511719 C 90.089844 11.5 89.042969 11.523438 87.886719 11.515625 C 87.53125 11.515625 87.175781 11.496094 86.824219 11.527344 C 86.71875 11.539062 86.574219 11.691406 86.550781 11.796875 C 86.535156 11.886719 86.65625 12.078125 86.746094 12.101562 C 87.441406 12.285156 87.378906 12.847656 87.378906 13.359375 C 87.375 13.816406 87.304688 14.273438 87.269531 14.730469 C 87.1875 15.75 87.09375 16.769531 87.027344 17.789062 C 86.914062 19.597656 87.421875 21.203125 89.511719 21.617188 C 90.625 21.835938 91.84375 21.890625 92.957031 21.679688 C 95.039062 21.289062 96 19.984375 95.898438 17.796875 C 95.820312 16.125 95.722656 14.453125 95.675781 12.78125 C 95.667969 12.582031 95.882812 12.285156 96.074219 12.183594 C 96.765625 11.832031 97.296875 12.28125 97.308594 13.253906 C 97.328125 15.503906 97.332031 17.757812 97.296875 20.007812 C 97.289062 20.449219 97.261719 21 96.625 21.132812 C 96.550781 21.148438 96.472656 21.308594 96.46875 21.40625 C 96.464844 21.460938 96.585938 21.566406 96.667969 21.585938 C 96.804688 21.617188 96.957031 21.59375 97.105469 21.597656 C 99.480469 21.644531 101.859375 21.691406 104.238281 21.722656 C 104.3125 21.722656 104.390625 21.574219 104.527344 21.464844 C 104.539062 21.425781 104.554688 21.386719 104.578125 21.265625 C 104.582031 21.210938 104.582031 21.160156 104.652344 21.0625 C 104.664062 20.988281 104.675781 20.914062 104.703125 20.785156 C 104.703125 20.785156 104.714844 20.730469 104.78125 20.691406 C 104.789062 20.617188 104.800781 20.546875 104.824219 20.40625 C 104.828125 20.382812 104.832031 20.359375 104.886719 20.316406 C 104.921875 20.289062 104.933594 20.257812 104.941406 20.132812 C 104.949219 20.078125 104.957031 20.019531 105.03125 19.925781 C 105.039062 19.851562 105.046875 19.777344 105.070312 19.625 C 105.078125 19.570312 105.085938 19.515625 105.160156 19.410156 C 105.175781 19.300781 105.195312 19.1875 105.214844 19.078125 C 105.214844 19.078125 105.214844 19.074219 105.265625 19.050781 M 30.683594 27.386719 C 30.722656 27.359375 30.734375 27.328125 30.765625 27.207031 C 30.984375 26.78125 31.226562 26.371094 31.410156 25.933594 C 31.917969 24.714844 31.679688 24.09375 30.621094 23.863281 C 30.621094 23.65625 30.621094 23.449219 30.621094 23.238281 C 30.621094 17.007812 30.621094 10.777344 30.628906 4.546875 C 30.628906 4.136719 30.582031 3.800781 30.082031 3.574219 C 29.804688 3.570312 29.53125 3.566406 29.160156 3.550781 C 29.066406 3.554688 28.972656 3.558594 28.761719 3.542969 C 20.230469 3.539062 11.695312 3.535156 3.160156 3.539062 C 2.226562 3.539062 2.019531 3.761719 2.019531 4.691406 C 2.015625 8.417969 2.015625 12.140625 2.015625 15.867188 C 2.015625 18.539062 2.015625 21.210938 2.015625 23.898438 C 1.496094 23.929688 1.042969 24.066406 1.058594 24.65625 C 1.09375 25.894531 1.542969 26.976562 2.402344 27.867188 C 3.441406 28.945312 4.777344 29.292969 6.207031 29.304688 C 8.714844 29.332031 11.226562 29.324219 13.734375 29.304688 C 18.332031 29.273438 22.925781 29.257812 27.523438 29.167969 C 28.804688 29.144531 29.832031 28.4375 30.628906 27.410156 C 30.628906 27.410156 30.632812 27.402344 30.683594 27.386719 M 62.777344 11.515625 C 60.644531 11.523438 58.507812 11.527344 56.265625 11.515625 C 55.019531 11.511719 53.773438 11.503906 52.527344 11.515625 C 52.363281 11.515625 52.203125 11.632812 52.042969 11.695312 C 52.15625 11.84375 52.273438 11.988281 52.386719 12.136719 C 52.589844 12.398438 52.941406 12.652344 52.964844 12.929688 C 53.097656 14.765625 53.207031 16.605469 53.234375 18.441406 C 53.253906 19.660156 52.292969 20.535156 51.171875 20.472656 C 49.832031 20.402344 49.171875 19.714844 49.214844 18.335938 C 49.265625 16.640625 49.355469 14.949219 49.46875 13.257812 C 49.503906 12.773438 49.59375 12.234375 50.300781 12.070312 C 50.644531 11.65625 50.285156 11.523438 50.015625 11.519531 C 48.519531 11.492188 47.023438 11.507812 45.429688 11.507812 C 45.496094 11.746094 45.539062 11.90625 45.671875 12.105469 C 46.109375 12.304688 46.246094 12.652344 46.222656 13.125 C 46.128906 15.027344 46.035156 16.933594 45.980469 18.835938 C 45.945312 20.105469 46.664062 21.03125 47.851562 21.5 C 48.972656 21.941406 50.132812 21.972656 51.273438 21.828125 C 53.125 21.59375 54.820312 20.5 54.722656 18.136719 C 54.648438 16.398438 54.546875 14.664062 54.484375 12.925781 C 54.464844 12.382812 54.824219 12.003906 55.308594 12.039062 C 55.808594 12.082031 56.007812 12.421875 56.015625 12.90625 C 56.050781 15.152344 56.113281 17.398438 56.113281 19.644531 C 56.113281 20.214844 56.152344 20.890625 55.421875 21.179688 C 55.339844 21.210938 55.320312 21.398438 55.246094 21.566406 C 56.917969 21.566406 58.5 21.566406 60.207031 21.566406 C 60.089844 21.363281 60.03125 21.234375 59.949219 21.121094 C 59.769531 20.859375 59.4375 20.617188 59.417969 20.351562 C 59.351562 19.367188 59.378906 18.375 59.394531 17.386719 C 59.398438 17.277344 59.53125 17.140625 59.636719 17.082031 C 59.6875 17.050781 59.855469 17.152344 59.910156 17.234375 C 60.410156 17.953125 60.953125 18.644531 61.371094 19.40625 C 62 20.546875 61.960938 20.566406 61.15625 21.410156 C 61.265625 21.476562 61.363281 21.585938 61.460938 21.585938 C 63.007812 21.597656 64.554688 21.601562 66.101562 21.59375 C 66.199219 21.589844 66.296875 21.484375 66.390625 21.425781 C 66.320312 21.320312 66.257812 21.207031 66.179688 21.109375 C 65.890625 20.738281 65.464844 20.417969 65.324219 20 C 64.925781 18.796875 64.398438 17.679688 63.605469 16.691406 C 63.363281 16.390625 63.128906 16.082031 62.980469 15.890625 C 63.570312 15.289062 64.195312 14.792969 64.644531 14.167969 C 65.234375 13.351562 64.925781 12.253906 64.082031 11.878906 C 63.707031 11.710938 63.289062 11.648438 62.777344 11.515625 M 34.335938 18.679688 C 35.277344 20.484375 36.820312 21.445312 38.773438 21.570312 C 40.773438 21.699219 42.789062 21.601562 44.796875 21.59375 C 44.917969 21.59375 45.042969 21.5 45.164062 21.449219 C 45.09375 21.316406 45.015625 21.1875 44.949219 21.050781 C 44.773438 20.6875 44.488281 20.332031 44.453125 19.957031 C 44.378906 19.101562 44.371094 18.226562 44.457031 17.371094 C 44.503906 16.890625 44.378906 16.226562 45.117188 16.03125 C 45.234375 16 45.324219 15.839844 45.425781 15.742188 C 45.296875 15.640625 45.164062 15.449219 45.035156 15.449219 C 43.660156 15.425781 42.285156 15.417969 40.910156 15.445312 C 40.730469 15.449219 40.558594 15.671875 40.382812 15.792969 C 40.390625 15.851562 40.402344 15.914062 40.410156 15.976562 C 41.214844 16.035156 41.335938 16.550781 41.320312 17.179688 C 41.304688 17.851562 41.320312 18.527344 41.3125 19.199219 C 41.304688 20.183594 40.632812 20.675781 39.691406 20.429688 C 38.988281 20.246094 38.425781 19.84375 38.058594 19.246094 C 37.046875 17.601562 36.957031 15.828125 37.71875 14.09375 C 37.957031 13.546875 38.589844 13.054688 39.160156 12.800781 C 40.523438 12.195312 42.289062 13.011719 43.042969 14.433594 C 43.148438 14.628906 43.351562 14.769531 43.511719 14.933594 C 43.585938 14.886719 43.660156 14.839844 43.730469 14.792969 C 43.585938 13.625 43.4375 12.453125 43.292969 11.308594 C 42.890625 11.429688 42.558594 11.640625 42.273438 11.589844 C 40.921875 11.34375 39.574219 11.265625 38.207031 11.378906 C 36.367188 11.527344 34.292969 12.847656 33.898438 14.863281 C 33.640625 16.160156 33.769531 17.390625 34.335938 18.679688 Z M 34.335938 18.679688 "/>
<path style=" stroke:none;fill-rule:nonzero;fill:rgb(2.745098%,33.333334%,73.725492%);fill-opacity:1;" d="M 28.878906 3.5625 C 28.972656 3.558594 29.066406 3.554688 29.246094 3.585938 C 29.605469 3.628906 29.875 3.640625 30.144531 3.652344 C 30.582031 3.800781 30.628906 4.136719 30.628906 4.546875 C 30.621094 10.777344 30.621094 17.007812 30.621094 23.238281 C 30.621094 23.449219 30.621094 23.65625 30.621094 23.863281 C 31.679688 24.09375 31.917969 24.714844 31.410156 25.933594 C 31.226562 26.371094 30.984375 26.78125 30.722656 27.257812 C 30.652344 27.335938 30.636719 27.363281 30.632812 27.402344 C 30.632812 27.402344 30.628906 27.410156 30.578125 27.414062 C 29.289062 28.148438 27.921875 28.175781 26.542969 28.175781 C 20.128906 28.167969 13.710938 28.175781 7.296875 28.167969 C 6.800781 28.164062 6.292969 28.121094 5.808594 28.023438 C 3.929688 27.65625 2.34375 25.894531 2.222656 24.019531 C 3.425781 24.019531 4.625 24.007812 5.824219 24.023438 C 7.554688 24.046875 9.285156 24.082031 11.015625 24.132812 C 11.292969 24.140625 11.570312 24.257812 11.847656 24.332031 C 11.84375 24.339844 11.832031 24.347656 11.835938 24.382812 C 11.878906 24.449219 11.914062 24.476562 11.945312 24.503906 C 11.9375 24.507812 11.9375 24.492188 11.949219 24.527344 C 11.996094 24.59375 12.035156 24.621094 12.101562 24.679688 C 12.472656 25.058594 12.558594 25.65625 13.257812 25.644531 C 15.320312 25.605469 17.382812 25.628906 19.445312 25.617188 C 19.628906 25.613281 19.894531 25.558594 19.988281 25.429688 C 20.296875 25.011719 20.539062 24.550781 20.851562 24.109375 C 20.976562 24.089844 21.0625 24.066406 21.144531 24.042969 C 20.328125 23.785156 19.519531 23.65625 18.714844 23.496094 C 18.542969 23.460938 18.390625 23.3125 18.285156 23.222656 C 21.375 23.226562 24.40625 23.238281 27.4375 23.214844 C 27.785156 23.210938 28.402344 23.042969 28.425781 22.886719 C 28.515625 22.179688 28.441406 21.449219 28.414062 20.675781 C 28.414062 20.441406 28.421875 20.257812 28.449219 20.074219 C 28.488281 20.050781 28.507812 20.03125 28.523438 20.011719 C 28.492188 20 28.460938 19.988281 28.417969 19.921875 C 28.410156 19.515625 28.417969 19.164062 28.46875 18.792969 C 28.542969 18.703125 28.601562 18.628906 28.605469 18.554688 C 28.609375 16.617188 28.613281 14.683594 28.601562 12.746094 C 28.601562 12.628906 28.484375 12.511719 28.410156 12.332031 C 28.40625 11.59375 28.414062 10.910156 28.464844 10.207031 C 28.476562 9.535156 28.449219 8.882812 28.410156 8.175781 C 28.40625 7.632812 28.414062 7.152344 28.441406 6.644531 C 28.445312 6.484375 28.429688 6.351562 28.394531 6.175781 C 28.082031 6.019531 27.789062 5.8125 27.5 5.8125 C 22.03125 5.792969 16.5625 5.796875 11.09375 5.800781 C 9.152344 5.800781 7.214844 5.816406 5.230469 5.808594 C 4.375 5.628906 4.171875 5.796875 4.164062 6.609375 C 4.152344 7.480469 4.140625 8.351562 4.085938 9.210938 C 3.976562 9.097656 3.875 9.003906 3.855469 8.894531 C 3.609375 7.453125 3.328125 6.015625 3.160156 4.566406 C 3.054688 3.667969 3.132812 3.660156 4.066406 3.660156 C 12.09375 3.660156 20.121094 3.664062 28.148438 3.660156 C 28.394531 3.660156 28.636719 3.597656 28.878906 3.5625 Z M 28.878906 3.5625 "/>
<path style=" stroke:none;fill-rule:nonzero;fill:rgb(1.176471%,28.627452%,65.882355%);fill-opacity:1;" d="M 50.21875 12.085938 C 49.59375 12.234375 49.503906 12.773438 49.46875 13.257812 C 49.355469 14.949219 49.265625 16.640625 49.214844 18.335938 C 49.171875 19.714844 49.832031 20.402344 51.171875 20.472656 C 52.292969 20.535156 53.253906 19.660156 53.234375 18.441406 C 53.207031 16.605469 53.097656 14.765625 52.964844 12.929688 C 52.941406 12.652344 52.589844 12.398438 52.386719 12.136719 C 52.273438 11.988281 52.15625 11.84375 52.042969 11.695312 C 52.203125 11.632812 52.363281 11.515625 52.527344 11.515625 C 53.773438 11.503906 55.019531 11.511719 56.335938 11.570312 C 56.519531 11.667969 56.632812 11.742188 56.742188 11.746094 C 58.515625 11.75 60.289062 11.757812 62.0625 11.742188 C 62.339844 11.738281 62.617188 11.609375 62.894531 11.539062 C 63.289062 11.648438 63.707031 11.710938 64.082031 11.878906 C 64.925781 12.253906 65.234375 13.351562 64.644531 14.167969 C 64.195312 14.792969 63.570312 15.289062 62.980469 15.890625 C 63.128906 16.082031 63.363281 16.390625 63.605469 16.691406 C 64.398438 17.679688 64.925781 18.796875 65.324219 20 C 65.464844 20.417969 65.890625 20.738281 66.179688 21.109375 C 66.257812 21.207031 66.320312 21.320312 66.390625 21.425781 C 66.296875 21.484375 66.199219 21.589844 66.101562 21.59375 C 64.554688 21.601562 63.007812 21.597656 61.460938 21.585938 C 61.363281 21.585938 61.265625 21.476562 61.15625 21.410156 C 61.960938 20.566406 62 20.546875 61.371094 19.40625 C 60.953125 18.644531 60.410156 17.953125 59.910156 17.234375 C 59.855469 17.152344 59.6875 17.050781 59.636719 17.082031 C 59.53125 17.140625 59.398438 17.277344 59.394531 17.386719 C 59.378906 18.375 59.351562 19.367188 59.417969 20.351562 C 59.4375 20.617188 59.769531 20.859375 59.949219 21.121094 C 60.03125 21.234375 60.089844 21.363281 60.207031 21.566406 C 58.5 21.566406 56.917969 21.566406 55.246094 21.566406 C 55.320312 21.398438 55.339844 21.210938 55.421875 21.179688 C 56.152344 20.890625 56.113281 20.214844 56.113281 19.644531 C 56.113281 17.398438 56.050781 15.152344 56.015625 12.90625 C 56.007812 12.421875 55.808594 12.082031 55.308594 12.039062 C 54.824219 12.003906 54.464844 12.382812 54.484375 12.925781 C 54.546875 14.664062 54.648438 16.398438 54.722656 18.136719 C 54.820312 20.5 53.125 21.59375 51.273438 21.828125 C 50.132812 21.972656 48.972656 21.941406 47.851562 21.5 C 46.664062 21.03125 45.945312 20.105469 45.980469 18.835938 C 46.035156 16.933594 46.128906 15.027344 46.222656 13.125 C 46.246094 12.652344 46.109375 12.304688 45.628906 12.046875 C 45.667969 11.925781 45.75 11.808594 45.835938 11.808594 C 47.121094 11.773438 48.40625 11.738281 49.695312 11.742188 C 49.871094 11.746094 50.042969 11.96875 50.21875 12.085938 M 59.378906 14.101562 C 59.378906 14.640625 59.378906 15.175781 59.378906 15.894531 C 59.988281 15.566406 60.507812 15.355469 60.949219 15.039062 C 61.53125 14.617188 61.726562 13.648438 61.398438 13.1875 C 61.105469 12.777344 60.355469 12.578125 59.8125 12.792969 C 59.234375 13.019531 59.40625 13.539062 59.378906 14.101562 Z M 59.378906 14.101562 "/>
<path style=" stroke:none;fill-rule:nonzero;fill:rgb(2.745098%,28.235295%,52.156866%);fill-opacity:1;" d="M 18.230469 23.214844 C 18.390625 23.3125 18.542969 23.460938 18.714844 23.496094 C 19.519531 23.65625 20.328125 23.785156 21.144531 24.042969 C 21.0625 24.066406 20.976562 24.089844 20.804688 24.09375 C 20.675781 24.0625 20.636719 24.042969 20.597656 24.042969 C 17.78125 24.027344 14.96875 24.011719 12.15625 24.015625 C 12.054688 24.015625 11.949219 24.21875 11.847656 24.324219 C 11.570312 24.257812 11.292969 24.140625 11.015625 24.132812 C 9.285156 24.082031 7.554688 24.046875 5.824219 24.023438 C 4.625 24.007812 3.425781 24.019531 2.222656 24.019531 C 2.34375 25.894531 3.929688 27.65625 5.808594 28.023438 C 6.292969 28.121094 6.800781 28.164062 7.296875 28.167969 C 13.710938 28.175781 20.128906 28.167969 26.542969 28.175781 C 27.921875 28.175781 29.289062 28.148438 30.574219 27.414062 C 29.832031 28.4375 28.804688 29.144531 27.523438 29.167969 C 22.925781 29.257812 18.332031 29.273438 13.734375 29.304688 C 11.226562 29.324219 8.714844 29.332031 6.207031 29.304688 C 4.777344 29.292969 3.441406 28.945312 2.402344 27.867188 C 1.542969 26.976562 1.09375 25.894531 1.058594 24.65625 C 1.042969 24.066406 1.496094 23.929688 2.015625 23.898438 C 2.015625 21.210938 2.015625 18.539062 2.015625 15.867188 C 2.015625 12.140625 2.015625 8.417969 2.019531 4.691406 C 2.019531 3.761719 2.226562 3.539062 3.160156 3.539062 C 11.695312 3.535156 20.230469 3.539062 28.820312 3.554688 C 28.636719 3.597656 28.394531 3.660156 28.148438 3.660156 C 20.121094 3.664062 12.09375 3.660156 4.066406 3.660156 C 3.132812 3.660156 3.054688 3.667969 3.160156 4.566406 C 3.328125 6.015625 3.609375 7.453125 3.855469 8.894531 C 3.875 9.003906 3.976562 9.097656 4.09375 9.269531 C 4.15625 13.613281 4.164062 17.886719 4.15625 22.160156 C 4.15625 22.644531 4.257812 22.984375 4.796875 23.121094 C 4.917969 23.191406 5.015625 23.246094 5.109375 23.246094 C 8.996094 23.25 12.878906 23.25 16.761719 23.242188 C 16.90625 23.242188 17.050781 23.140625 17.25 23.070312 C 17.59375 23.058594 17.886719 23.0625 18.183594 23.09375 C 18.203125 23.152344 18.214844 23.183594 18.230469 23.214844 Z M 18.230469 23.214844 "/>
<path style=" stroke:none;fill-rule:nonzero;fill:rgb(1.568628%,28.627452%,65.490198%);fill-opacity:1;" d="M 34.316406 18.636719 C 33.769531 17.390625 33.640625 16.160156 33.898438 14.863281 C 34.292969 12.847656 36.367188 11.527344 38.207031 11.378906 C 39.574219 11.265625 40.921875 11.34375 42.273438 11.589844 C 42.558594 11.640625 42.890625 11.429688 43.292969 11.308594 C 43.4375 12.453125 43.585938 13.625 43.730469 14.792969 C 43.660156 14.839844 43.585938 14.886719 43.511719 14.933594 C 43.351562 14.769531 43.148438 14.628906 43.042969 14.433594 C 42.289062 13.011719 40.523438 12.195312 39.160156 12.800781 C 38.589844 13.054688 37.957031 13.546875 37.71875 14.09375 C 36.957031 15.828125 37.046875 17.601562 38.058594 19.246094 C 38.425781 19.84375 38.988281 20.246094 39.691406 20.429688 C 40.632812 20.675781 41.304688 20.183594 41.3125 19.199219 C 41.320312 18.527344 41.304688 17.851562 41.320312 17.179688 C 41.335938 16.550781 41.214844 16.035156 40.410156 15.976562 C 40.402344 15.914062 40.390625 15.851562 40.382812 15.792969 C 40.558594 15.671875 40.730469 15.449219 40.910156 15.445312 C 42.285156 15.417969 43.660156 15.425781 45.035156 15.449219 C 45.164062 15.449219 45.296875 15.640625 45.425781 15.742188 C 45.324219 15.839844 45.234375 16 45.117188 16.03125 C 44.378906 16.226562 44.503906 16.890625 44.457031 17.371094 C 44.371094 18.226562 44.378906 19.101562 44.453125 19.957031 C 44.488281 20.332031 44.773438 20.6875 44.949219 21.050781 C 45.015625 21.1875 45.09375 21.316406 45.164062 21.449219 C 45.042969 21.5 44.917969 21.59375 44.796875 21.59375 C 42.789062 21.601562 40.773438 21.699219 38.773438 21.570312 C 36.820312 21.445312 35.277344 20.484375 34.316406 18.636719 Z M 34.316406 18.636719 "/>
<path style=" stroke:none;fill-rule:nonzero;fill:rgb(1.960784%,28.235295%,64.705884%);fill-opacity:1;" d="M 91.414062 12.042969 C 90.933594 12.214844 90.667969 12.566406 90.640625 13.066406 C 90.546875 14.859375 90.4375 16.65625 90.394531 18.453125 C 90.359375 19.859375 91.171875 20.449219 92.566406 20.375 C 94.054688 20.296875 94.367188 19.375 94.398438 18.269531 C 94.445312 16.730469 94.277344 15.183594 94.199219 13.640625 C 94.191406 13.453125 94.191406 13.261719 94.175781 13.074219 C 94.132812 12.640625 94.027344 12.265625 93.535156 12.113281 C 93.402344 12.070312 93.316406 11.875 93.207031 11.75 C 93.359375 11.667969 93.507812 11.511719 93.65625 11.511719 C 94.554688 11.503906 95.449219 11.53125 96.347656 11.539062 C 96.589844 11.542969 96.832031 11.519531 97.128906 11.5625 C 97.265625 11.703125 97.347656 11.789062 97.429688 11.929688 C 97.449219 12.371094 97.472656 12.761719 97.476562 13.152344 C 97.507812 15.183594 97.542969 17.214844 97.546875 19.242188 C 97.550781 19.910156 97.460938 20.574219 97.402344 21.421875 C 98.257812 21.421875 99.15625 21.449219 100.054688 21.40625 C 100.355469 21.394531 100.648438 21.207031 101.003906 21.101562 C 101.792969 20.988281 102.523438 20.878906 103.382812 20.746094 C 103.195312 21 103.105469 21.121094 103.011719 21.242188 C 103.027344 21.304688 103.039062 21.367188 103.054688 21.425781 C 103.523438 21.402344 103.992188 21.378906 104.464844 21.390625 C 104.464844 21.449219 104.46875 21.472656 104.46875 21.496094 C 104.390625 21.574219 104.3125 21.722656 104.238281 21.722656 C 101.859375 21.691406 99.480469 21.644531 97.105469 21.597656 C 96.957031 21.59375 96.804688 21.617188 96.667969 21.585938 C 96.585938 21.566406 96.464844 21.460938 96.46875 21.40625 C 96.472656 21.308594 96.550781 21.148438 96.625 21.132812 C 97.261719 21 97.289062 20.449219 97.296875 20.007812 C 97.332031 17.757812 97.328125 15.503906 97.308594 13.253906 C 97.296875 12.28125 96.765625 11.832031 96.074219 12.183594 C 95.882812 12.285156 95.667969 12.582031 95.675781 12.78125 C 95.722656 14.453125 95.820312 16.125 95.898438 17.796875 C 96 19.984375 95.039062 21.289062 92.957031 21.679688 C 91.84375 21.890625 90.625 21.835938 89.511719 21.617188 C 87.421875 21.203125 86.914062 19.597656 87.027344 17.789062 C 87.09375 16.769531 87.1875 15.75 87.269531 14.730469 C 87.304688 14.273438 87.375 13.816406 87.378906 13.359375 C 87.378906 12.847656 87.441406 12.285156 86.746094 12.101562 C 86.65625 12.078125 86.535156 11.886719 86.550781 11.796875 C 86.574219 11.691406 86.71875 11.539062 86.824219 11.527344 C 87.175781 11.496094 87.53125 11.515625 87.921875 11.550781 C 87.933594 11.621094 87.898438 11.652344 87.894531 11.6875 C 87.890625 11.707031 87.949219 11.746094 87.976562 11.746094 C 88.886719 11.75 89.796875 11.730469 90.703125 11.765625 C 90.941406 11.773438 91.179688 11.945312 91.414062 12.042969 Z M 91.414062 12.042969 "/>
<path style=" stroke:none;fill-rule:nonzero;fill:rgb(1.960784%,28.235295%,64.313728%);fill-opacity:1;" d="M 66.421875 11.527344 C 66.554688 11.523438 66.6875 11.519531 66.886719 11.566406 C 67.023438 11.664062 67.09375 11.734375 67.164062 11.738281 C 68.378906 11.75 69.59375 11.753906 70.8125 11.757812 C 70.757812 11.875 70.722656 12.074219 70.648438 12.089844 C 70.070312 12.222656 69.96875 12.695312 69.9375 13.144531 C 69.828125 14.941406 69.699219 16.738281 69.699219 18.535156 C 69.699219 19.949219 70.304688 20.253906 71.527344 20.449219 C 72.394531 20.585938 73.429688 19.894531 73.5625 18.992188 C 73.679688 18.175781 73.644531 17.332031 73.625 16.503906 C 73.597656 15.480469 73.503906 14.460938 73.460938 13.4375 C 73.4375 12.832031 73.457031 12.242188 72.679688 12.074219 C 72.59375 12.058594 72.480469 11.832031 72.503906 11.742188 C 72.53125 11.640625 72.710938 11.519531 72.824219 11.519531 C 73.703125 11.503906 74.578125 11.519531 75.457031 11.519531 C 75.800781 11.519531 76.140625 11.515625 76.539062 11.558594 C 76.589844 11.65625 76.589844 11.703125 76.550781 11.757812 C 76.496094 11.867188 76.441406 11.976562 76.46875 12.0625 C 76.625 12.660156 76.925781 13.25 76.945312 13.847656 C 76.988281 15.117188 76.878906 16.386719 76.84375 17.660156 C 76.832031 17.996094 76.738281 18.398438 76.882812 18.65625 C 77.304688 19.410156 76.867188 19.914062 76.5 20.460938 C 76.535156 18.363281 76.578125 16.265625 76.59375 14.167969 C 76.597656 13.691406 76.523438 13.210938 76.449219 12.738281 C 76.386719 12.324219 76.199219 12.0625 75.699219 12.101562 C 75.234375 12.136719 74.984375 12.363281 74.96875 12.785156 C 74.941406 13.519531 74.96875 14.257812 74.984375 14.992188 C 75.011719 16.300781 75.074219 17.609375 75.070312 18.917969 C 75.0625 20.078125 74.347656 20.851562 73.394531 21.289062 C 71.554688 22.128906 69.652344 22.179688 67.8125 21.265625 C 66.914062 20.816406 66.417969 20.011719 66.433594 18.976562 C 66.457031 16.960938 66.535156 14.949219 66.546875 12.9375 C 66.546875 12.664062 66.289062 12.386719 66.121094 12.066406 C 66.199219 11.855469 66.308594 11.691406 66.421875 11.527344 Z M 66.421875 11.527344 "/>
<path style=" stroke:none;fill-rule:nonzero;fill:rgb(0.392157%,29.019609%,68.235296%);fill-opacity:1;" d="M 76.492188 20.503906 C 76.867188 19.914062 77.304688 19.410156 76.882812 18.65625 C 76.738281 18.398438 76.832031 17.996094 76.84375 17.660156 C 76.878906 16.386719 76.988281 15.117188 76.945312 13.847656 C 76.925781 13.25 76.625 12.660156 76.46875 12.0625 C 76.441406 11.976562 76.496094 11.867188 76.609375 11.757812 C 77.671875 11.75 78.636719 11.75 79.597656 11.796875 C 79.554688 12.082031 79.277344 12.375 79.730469 12.5625 C 79.6875 13.15625 79.636719 13.691406 79.605469 14.230469 C 79.589844 14.507812 79.628906 14.785156 79.21875 14.800781 C 79.144531 14.804688 79.078125 14.953125 79.007812 15.035156 C 79.117188 15.101562 79.222656 15.167969 79.335938 15.222656 C 79.519531 15.3125 79.699219 15.398438 79.886719 15.46875 C 79.996094 15.507812 80.117188 15.519531 80.277344 15.539062 C 80.671875 15.457031 81.015625 15.371094 81.378906 15.324219 C 81.484375 15.402344 81.570312 15.445312 81.65625 15.488281 C 81.714844 15.425781 81.769531 15.359375 81.824219 15.292969 C 81.710938 15.25 81.597656 15.207031 81.484375 15.109375 C 81.445312 14.671875 81.40625 14.285156 81.40625 13.894531 C 81.503906 13.769531 81.558594 13.652344 81.617188 13.535156 C 81.617188 13.535156 81.617188 13.523438 81.644531 13.507812 C 81.703125 13.472656 81.722656 13.441406 81.738281 13.410156 C 81.738281 13.410156 81.738281 13.394531 81.769531 13.382812 C 81.828125 13.34375 81.847656 13.3125 81.863281 13.277344 C 81.863281 13.277344 81.863281 13.269531 81.914062 13.269531 C 82.054688 13.441406 82.148438 13.605469 82.207031 13.773438 C 82.15625 13.773438 82.132812 13.773438 82.085938 13.796875 C 82.03125 13.886719 82.011719 13.957031 81.957031 14.03125 C 82.070312 14.117188 82.214844 14.195312 82.40625 14.277344 C 82.5 14.277344 82.554688 14.277344 82.609375 14.28125 C 82.609375 14.28125 82.617188 14.277344 82.613281 14.332031 C 82.613281 14.5625 82.617188 14.734375 82.574219 14.914062 C 82.292969 15.214844 82.109375 15.59375 81.808594 15.785156 C 81.414062 16.035156 80.925781 16.132812 80.449219 16.296875 C 80.417969 16.296875 80.359375 16.300781 80.359375 16.300781 C 80.335938 16.296875 80.316406 16.296875 80.234375 16.265625 C 79.96875 16.441406 79.582031 16.640625 79.582031 16.84375 C 79.582031 18.136719 79.679688 19.429688 79.714844 20.722656 C 79.722656 20.921875 79.601562 21.125 79.535156 21.328125 C 79.378906 21.207031 79.21875 21.085938 79.167969 21.046875 C 78.144531 21.671875 77.046875 21.128906 76.117188 21.449219 C 76.253906 21.175781 76.363281 20.949219 76.476562 20.726562 C 76.476562 20.667969 76.480469 20.609375 76.492188 20.503906 M 78.804688 14.257812 C 78.855469 14.136719 78.902344 14.011719 78.949219 13.886719 C 78.894531 13.875 78.839844 13.859375 78.785156 13.847656 C 78.765625 13.992188 78.742188 14.132812 78.65625 14.289062 C 78.617188 14.324219 78.578125 14.363281 78.539062 14.398438 C 78.5625 14.417969 78.589844 14.441406 78.613281 14.460938 C 78.648438 14.402344 78.6875 14.339844 78.804688 14.257812 M 78.882812 17.195312 C 78.933594 17.308594 78.984375 17.417969 79.035156 17.53125 C 79.089844 17.480469 79.144531 17.429688 79.199219 17.378906 C 79.113281 17.296875 79.023438 17.214844 78.882812 17.195312 M 79.203125 12.445312 C 79.152344 12.410156 79.101562 12.375 79.050781 12.339844 C 79.035156 12.394531 79.023438 12.445312 79.011719 12.496094 C 79.070312 12.503906 79.128906 12.511719 79.203125 12.445312 M 78.535156 16.390625 C 78.566406 16.425781 78.59375 16.457031 78.628906 16.488281 C 78.628906 16.488281 78.652344 16.464844 78.664062 16.449219 C 78.636719 16.417969 78.605469 16.386719 78.535156 16.390625 Z M 78.535156 16.390625 "/>
<path style=" stroke:none;fill-rule:nonzero;fill:rgb(0.392157%,29.019609%,68.235296%);fill-opacity:1;" d="M 80.480469 16.296875 C 80.925781 16.132812 81.414062 16.035156 81.808594 15.785156 C 82.109375 15.59375 82.292969 15.214844 82.609375 14.898438 C 82.800781 14.945312 82.917969 15.007812 83.023438 15.085938 C 83.222656 15.230469 83.417969 15.390625 83.617188 15.542969 C 83.617188 15.542969 83.621094 15.542969 83.617188 15.589844 C 83.503906 15.917969 83.390625 16.195312 83.277344 16.476562 C 83.316406 16.5 83.351562 16.523438 83.390625 16.546875 C 83.519531 16.445312 83.644531 16.339844 83.8125 16.207031 C 84.101562 16.765625 84.367188 17.316406 84.667969 17.847656 C 84.773438 18.03125 84.96875 18.164062 85.121094 18.320312 C 85.121094 18.320312 85.128906 18.320312 85.121094 18.367188 C 85.089844 18.515625 85.015625 18.644531 85.050781 18.710938 C 85.417969 19.390625 85.269531 20.269531 85.832031 20.847656 C 85.394531 20.8125 85.359375 21.0625 85.324219 21.363281 C 84.375 21.402344 83.476562 21.449219 82.578125 21.449219 C 82.503906 21.449219 82.433594 21.140625 82.359375 20.972656 C 82.359375 20.972656 82.363281 20.972656 82.410156 20.960938 C 82.671875 20.53125 82.816406 20.125 82.273438 19.835938 C 82.265625 19.78125 82.253906 19.726562 82.273438 19.589844 C 82.285156 19.214844 82.375 18.820312 82.21875 18.632812 C 81.601562 17.898438 81.554688 17.832031 81.953125 17.058594 C 81.972656 17.015625 81.933594 16.941406 81.917969 16.855469 C 81.480469 16.753906 81.042969 16.65625 80.605469 16.554688 C 80.605469 16.554688 80.605469 16.550781 80.59375 16.527344 C 80.554688 16.464844 80.527344 16.441406 80.488281 16.425781 C 80.488281 16.425781 80.480469 16.425781 80.480469 16.390625 C 80.480469 16.359375 80.480469 16.296875 80.480469 16.296875 M 83.191406 18.214844 C 83.136719 18.136719 83.082031 18.058594 83.023438 17.980469 C 82.984375 18.019531 82.945312 18.058594 82.902344 18.097656 C 82.980469 18.15625 83.058594 18.214844 83.191406 18.214844 Z M 83.191406 18.214844 "/>
<path style=" stroke:none;fill-rule:nonzero;fill:rgb(1.960784%,28.235295%,64.313728%);fill-opacity:1;" d="M 76.4375 20.75 C 76.363281 20.949219 76.253906 21.175781 76.117188 21.449219 C 77.046875 21.128906 78.144531 21.671875 79.167969 21.046875 C 79.21875 21.085938 79.378906 21.207031 79.535156 21.328125 C 79.601562 21.125 79.722656 20.921875 79.714844 20.722656 C 79.679688 19.429688 79.582031 18.136719 79.582031 16.84375 C 79.582031 16.640625 79.96875 16.441406 80.203125 16.265625 C 80.097656 16.667969 79.886719 17.039062 79.855469 17.421875 C 79.796875 18.191406 79.839844 18.972656 79.839844 19.746094 C 79.835938 20.335938 79.933594 20.863281 80.5625 21.132812 C 80.65625 21.175781 80.6875 21.375 80.769531 21.550781 C 79.035156 21.550781 77.40625 21.550781 75.773438 21.550781 C 75.746094 21.503906 75.714844 21.457031 75.6875 21.410156 C 75.925781 21.199219 76.164062 20.988281 76.4375 20.75 Z M 76.4375 20.75 "/>
<path style=" stroke:none;fill-rule:nonzero;fill:rgb(0.392157%,28.627452%,68.235296%);fill-opacity:1;" d="M 104.460938 21.355469 C 103.992188 21.378906 103.523438 21.402344 103.054688 21.425781 C 103.039062 21.367188 103.027344 21.304688 103.011719 21.242188 C 103.105469 21.121094 103.195312 21 103.382812 20.746094 C 102.523438 20.878906 101.792969 20.988281 100.976562 21.070312 C 100.785156 20.933594 100.679688 20.828125 100.613281 20.703125 C 101.003906 20.695312 101.355469 20.753906 101.695312 20.707031 C 101.917969 20.675781 102.117188 20.492188 102.328125 20.378906 C 102.386719 20.371094 102.441406 20.363281 102.5625 20.375 C 102.695312 20.339844 102.761719 20.277344 102.828125 20.21875 C 102.828125 20.21875 102.828125 20.214844 102.878906 20.21875 C 103.125 20.238281 103.324219 20.261719 103.433594 20.273438 C 103.71875 20.007812 103.949219 19.796875 104.203125 19.5625 C 104.34375 20.054688 104.460938 20.449219 104.578125 20.890625 C 104.582031 20.992188 104.585938 21.046875 104.585938 21.105469 C 104.582031 21.160156 104.582031 21.210938 104.542969 21.308594 C 104.511719 21.351562 104.460938 21.355469 104.460938 21.355469 Z M 104.460938 21.355469 "/>
<path style=" stroke:none;fill-rule:nonzero;fill:rgb(1.960784%,28.235295%,64.313728%);fill-opacity:1;" d="M 82.3125 20.980469 C 82.433594 21.140625 82.503906 21.449219 82.578125 21.449219 C 83.476562 21.449219 84.375 21.402344 85.371094 21.355469 C 85.636719 21.207031 86.125 21.339844 85.878906 20.847656 C 85.269531 20.269531 85.417969 19.390625 85.050781 18.710938 C 85.015625 18.644531 85.089844 18.515625 85.121094 18.371094 C 85.335938 18.820312 85.527344 19.320312 85.753906 19.804688 C 86.003906 20.335938 86.101562 20.996094 86.839844 21.140625 C 86.902344 21.152344 86.933594 21.332031 86.976562 21.4375 C 86.855469 21.488281 86.734375 21.589844 86.613281 21.589844 C 85.902344 21.605469 85.191406 21.597656 84.480469 21.597656 C 83.769531 21.597656 83.058594 21.609375 82.347656 21.589844 C 82.152344 21.582031 81.957031 21.472656 81.761719 21.410156 C 81.929688 21.269531 82.097656 21.128906 82.3125 20.980469 Z M 82.3125 20.980469 "/>
<path style=" stroke:none;fill-rule:nonzero;fill:rgb(1.960784%,28.235295%,64.313728%);fill-opacity:1;" d="M 80.230469 15.542969 C 80.117188 15.519531 79.996094 15.507812 79.886719 15.46875 C 79.699219 15.398438 79.519531 15.3125 79.335938 15.222656 C 79.222656 15.167969 79.117188 15.101562 79.007812 15.035156 C 79.078125 14.953125 79.144531 14.804688 79.21875 14.800781 C 79.628906 14.785156 79.589844 14.507812 79.605469 14.230469 C 79.636719 13.691406 79.6875 13.15625 79.761719 12.53125 C 79.855469 12.214844 79.917969 11.984375 79.980469 11.75 C 79.980469 11.75 79.980469 11.75 80.007812 11.75 C 80.066406 11.726562 80.097656 11.707031 80.128906 11.6875 C 80.082031 11.667969 80.03125 11.648438 79.949219 11.625 C 79.855469 11.589844 79.796875 11.558594 79.738281 11.527344 C 80.105469 11.542969 80.601562 11.277344 80.652344 11.921875 C 79.546875 12.695312 79.921875 13.824219 79.96875 14.941406 C 80.367188 14.609375 80.765625 14.277344 81.199219 13.980469 C 81.054688 14.308594 80.9375 14.773438 80.683594 14.867188 C 80.292969 15.011719 80.210938 15.199219 80.230469 15.542969 Z M 80.230469 15.542969 "/>
<path style=" stroke:none;fill-rule:nonzero;fill:rgb(0.784314%,28.627452%,69.01961%);fill-opacity:1;" d="M 82.238281 12.632812 C 82.242188 12.578125 82.246094 12.519531 82.277344 12.390625 C 82.414062 12.128906 82.515625 11.9375 82.675781 11.75 C 83.324219 11.75 83.914062 11.75 84.507812 11.796875 C 84.550781 12.023438 84.585938 12.203125 84.582031 12.382812 C 84.484375 12.382812 84.429688 12.382812 84.328125 12.390625 C 83.695312 12.695312 83.105469 12.996094 82.460938 13.324219 C 82.367188 13.039062 82.300781 12.835938 82.238281 12.632812 M 83.039062 12.511719 C 83.175781 12.527344 83.3125 12.542969 83.453125 12.558594 C 83.480469 12.488281 83.503906 12.417969 83.53125 12.347656 C 83.332031 12.25 83.136719 12.152344 82.9375 12.050781 C 82.941406 12.199219 82.945312 12.351562 83.039062 12.511719 Z M 83.039062 12.511719 "/>
<path style=" stroke:none;fill-rule:nonzero;fill:rgb(6.27451%,32.156864%,70.19608%);fill-opacity:1;" d="M 100.53125 13.269531 C 100.539062 15.417969 100.542969 17.570312 100.507812 19.777344 C 100.414062 19.835938 100.367188 19.835938 100.320312 19.792969 C 100.320312 19.695312 100.316406 19.640625 100.316406 19.542969 C 100.316406 19.445312 100.316406 19.386719 100.316406 19.273438 C 100.320312 17.230469 100.320312 15.25 100.355469 13.269531 C 100.4375 13.269531 100.484375 13.269531 100.53125 13.269531 Z M 100.53125 13.269531 "/>
<path style=" stroke:none;fill-rule:nonzero;fill:rgb(7.843138%,32.156864%,66.274512%);fill-opacity:1;" d="M 62.835938 11.527344 C 62.617188 11.609375 62.339844 11.738281 62.0625 11.742188 C 60.289062 11.757812 58.515625 11.75 56.742188 11.746094 C 56.632812 11.742188 56.519531 11.667969 56.390625 11.578125 C 58.507812 11.527344 60.644531 11.523438 62.835938 11.527344 Z M 62.835938 11.527344 "/>
<path style=" stroke:none;fill-rule:nonzero;fill:rgb(1.960784%,28.235295%,64.313728%);fill-opacity:1;" d="M 80.613281 16.597656 C 81.042969 16.65625 81.480469 16.753906 81.917969 16.855469 C 81.933594 16.941406 81.972656 17.015625 81.953125 17.058594 C 81.554688 17.832031 81.601562 17.898438 82.21875 18.632812 C 82.375 18.820312 82.285156 19.214844 82.269531 19.550781 C 81.699219 18.605469 81.160156 17.621094 80.613281 16.597656 Z M 80.613281 16.597656 "/>
<path style=" stroke:none;fill-rule:nonzero;fill:rgb(9.019608%,30.980393%,63.529414%);fill-opacity:1;" d="M 50.257812 12.078125 C 50.042969 11.96875 49.871094 11.746094 49.695312 11.742188 C 48.40625 11.738281 47.121094 11.773438 45.835938 11.808594 C 45.75 11.808594 45.667969 11.925781 45.585938 12.027344 C 45.539062 11.90625 45.496094 11.746094 45.429688 11.507812 C 47.023438 11.507812 48.519531 11.492188 50.015625 11.519531 C 50.285156 11.523438 50.644531 11.65625 50.257812 12.078125 Z M 50.257812 12.078125 "/>
<path style=" stroke:none;fill-rule:nonzero;fill:rgb(1.960784%,28.235295%,64.313728%);fill-opacity:1;" d="M 82.203125 12.65625 C 82.300781 12.835938 82.367188 13.039062 82.460938 13.324219 C 83.105469 12.996094 83.695312 12.695312 84.328125 12.433594 C 84.371094 12.550781 84.371094 12.632812 84.371094 12.71875 C 83.835938 13.121094 83.296875 13.519531 82.703125 13.925781 C 82.648438 13.929688 82.613281 13.898438 82.609375 13.859375 C 82.5625 13.785156 82.523438 13.75 82.484375 13.710938 C 82.445312 13.773438 82.402344 13.835938 82.363281 13.898438 C 82.363281 13.898438 82.363281 13.898438 82.339844 13.882812 C 82.277344 13.84375 82.253906 13.8125 82.238281 13.773438 C 82.148438 13.605469 82.054688 13.441406 81.917969 13.273438 C 81.96875 13.070312 82.066406 12.875 82.203125 12.65625 Z M 82.203125 12.65625 "/>
<path style=" stroke:none;fill-rule:nonzero;fill:rgb(8.627451%,30.980393%,65.098041%);fill-opacity:1;" d="M 97.429688 11.878906 C 97.347656 11.789062 97.265625 11.703125 97.179688 11.574219 C 98.425781 11.523438 99.675781 11.515625 100.921875 11.5 C 101.21875 11.496094 101.359375 11.59375 101.257812 11.945312 C 101.039062 11.953125 100.867188 11.914062 100.640625 11.875 C 99.535156 11.875 98.484375 11.875 97.429688 11.878906 Z M 97.429688 11.878906 "/>
<path style=" stroke:none;fill-rule:nonzero;fill:rgb(1.960784%,28.235295%,64.705884%);fill-opacity:1;" d="M 104.578125 20.847656 C 104.460938 20.449219 104.34375 20.054688 104.203125 19.5625 C 103.949219 19.796875 103.71875 20.007812 103.433594 20.273438 C 103.324219 20.261719 103.125 20.238281 102.878906 20.214844 C 103.308594 19.847656 103.785156 19.480469 104.316406 19.136719 C 104.566406 19.339844 104.761719 19.523438 104.960938 19.75 C 104.964844 19.851562 104.964844 19.90625 104.964844 19.964844 C 104.957031 20.019531 104.949219 20.078125 104.910156 20.191406 C 104.859375 20.273438 104.84375 20.300781 104.835938 20.335938 C 104.832031 20.359375 104.828125 20.382812 104.792969 20.464844 C 104.746094 20.59375 104.730469 20.660156 104.714844 20.730469 C 104.714844 20.730469 104.703125 20.785156 104.667969 20.816406 C 104.632812 20.84375 104.578125 20.847656 104.578125 20.847656 Z M 104.578125 20.847656 "/>
<path style=" stroke:none;fill-rule:nonzero;fill:rgb(1.960784%,28.235295%,64.313728%);fill-opacity:1;" d="M 85.113281 18.273438 C 84.96875 18.164062 84.773438 18.03125 84.667969 17.847656 C 84.367188 17.316406 84.101562 16.765625 83.8125 16.207031 C 83.644531 16.339844 83.519531 16.445312 83.390625 16.546875 C 83.351562 16.523438 83.316406 16.5 83.277344 16.476562 C 83.390625 16.195312 83.503906 15.917969 83.617188 15.589844 C 84.117188 16.4375 84.613281 17.332031 85.113281 18.273438 Z M 85.113281 18.273438 "/>
<path style=" stroke:none;fill-rule:nonzero;fill:rgb(8.627451%,30.19608%,62.7451%);fill-opacity:1;" d="M 70.800781 11.707031 C 69.59375 11.753906 68.378906 11.75 67.164062 11.738281 C 67.09375 11.734375 67.023438 11.664062 66.9375 11.578125 C 68.109375 11.523438 69.296875 11.507812 70.488281 11.511719 C 70.589844 11.511719 70.691406 11.605469 70.800781 11.707031 Z M 70.800781 11.707031 "/>
<path style=" stroke:none;fill-rule:nonzero;fill:rgb(9.803922%,31.37255%,65.490198%);fill-opacity:1;" d="M 91.457031 12.023438 C 91.179688 11.945312 90.941406 11.773438 90.703125 11.765625 C 89.796875 11.730469 88.886719 11.75 87.976562 11.746094 C 87.949219 11.746094 87.890625 11.707031 87.894531 11.6875 C 87.898438 11.652344 87.933594 11.621094 87.976562 11.558594 C 89.042969 11.523438 90.089844 11.5 91.136719 11.511719 C 91.382812 11.515625 91.808594 11.519531 91.457031 12.023438 Z M 91.457031 12.023438 "/>
<path style=" stroke:none;fill-rule:nonzero;fill:rgb(9.411765%,31.37255%,64.313728%);fill-opacity:1;" d="M 84.503906 11.75 C 83.914062 11.75 83.324219 11.75 82.675781 11.710938 C 82.617188 11.628906 82.613281 11.582031 82.613281 11.535156 C 83.636719 11.523438 84.65625 11.5 85.679688 11.511719 C 86.070312 11.515625 86.289062 11.679688 85.921875 12.035156 C 85.707031 11.910156 85.542969 11.832031 85.324219 11.75 C 85.011719 11.75 84.757812 11.75 84.503906 11.75 Z M 84.503906 11.75 "/>
<path style=" stroke:none;fill-rule:nonzero;fill:rgb(1.176471%,28.627452%,67.843139%);fill-opacity:1;" d="M 104.960938 19.710938 C 104.761719 19.523438 104.566406 19.339844 104.351562 19.117188 C 104.335938 19.074219 104.351562 19.015625 104.402344 18.984375 C 104.855469 18.90625 104.941406 18.671875 104.839844 18.320312 C 104.839844 18.320312 104.855469 18.257812 104.886719 18.210938 C 104.945312 18.136719 104.957031 18.105469 104.964844 18.066406 C 104.964844 18.066406 104.964844 18.070312 105.003906 18.0625 C 105.160156 17.960938 105.277344 17.867188 105.4375 17.738281 C 105.449219 17.933594 105.460938 18.066406 105.46875 18.203125 C 105.46875 18.203125 105.453125 18.261719 105.417969 18.308594 C 105.367188 18.472656 105.351562 18.585938 105.339844 18.699219 C 105.335938 18.753906 105.328125 18.8125 105.289062 18.925781 C 105.234375 19.011719 105.21875 19.039062 105.214844 19.074219 C 105.214844 19.074219 105.214844 19.078125 105.175781 19.085938 C 105.121094 19.214844 105.105469 19.339844 105.09375 19.460938 C 105.085938 19.515625 105.078125 19.570312 105.039062 19.664062 C 105.003906 19.707031 104.960938 19.710938 104.960938 19.710938 Z M 104.960938 19.710938 "/>
<path style=" stroke:none;fill-rule:nonzero;fill:rgb(0.392157%,29.019609%,68.235296%);fill-opacity:1;" d="M 80.277344 15.539062 C 80.210938 15.199219 80.292969 15.011719 80.683594 14.867188 C 80.9375 14.773438 81.054688 14.308594 81.238281 13.964844 C 81.25 13.875 81.269531 13.839844 81.332031 13.832031 C 81.359375 13.847656 81.363281 13.902344 81.363281 13.902344 C 81.40625 14.285156 81.445312 14.671875 81.460938 15.121094 C 81.398438 15.21875 81.375 15.25 81.359375 15.289062 C 81.015625 15.371094 80.671875 15.457031 80.277344 15.539062 Z M 80.277344 15.539062 "/>
<path style=" stroke:none;fill-rule:nonzero;fill:rgb(1.960784%,28.235295%,64.705884%);fill-opacity:1;" d="M 100.320312 19.835938 C 100.367188 19.835938 100.414062 19.835938 100.5 19.835938 C 100.839844 20.492188 101.351562 20.652344 102.277344 20.371094 C 102.117188 20.492188 101.917969 20.675781 101.695312 20.707031 C 101.355469 20.753906 101.003906 20.695312 100.613281 20.65625 C 100.484375 20.367188 100.402344 20.101562 100.320312 19.835938 Z M 100.320312 19.835938 "/>
<path style=" stroke:none;fill-rule:nonzero;fill:rgb(7.843138%,32.156864%,66.666669%);fill-opacity:1;" d="M 79.679688 11.519531 C 79.796875 11.558594 79.855469 11.589844 79.949219 11.65625 C 79.980469 11.6875 79.980469 11.75 79.980469 11.75 C 79.980469 11.75 79.980469 11.75 79.933594 11.75 C 79.789062 11.75 79.695312 11.75 79.601562 11.75 C 78.636719 11.75 77.671875 11.75 76.652344 11.75 C 76.589844 11.703125 76.589844 11.65625 76.589844 11.570312 C 77.601562 11.527344 78.609375 11.519531 79.679688 11.519531 Z M 79.679688 11.519531 "/>
<path style=" stroke:none;fill-rule:nonzero;fill:rgb(1.960784%,28.235295%,64.313728%);fill-opacity:1;" d="M 82.558594 11.523438 C 82.613281 11.582031 82.617188 11.628906 82.617188 11.710938 C 82.515625 11.9375 82.414062 12.128906 82.28125 12.347656 C 82.144531 12.292969 82.035156 12.207031 81.929688 12.121094 C 81.792969 12.003906 81.664062 11.886719 81.527344 11.769531 C 81.691406 11.679688 81.84375 11.5625 82.015625 11.515625 C 82.167969 11.472656 82.34375 11.511719 82.558594 11.523438 Z M 82.558594 11.523438 "/>
<path style=" stroke:none;fill-rule:nonzero;fill:rgb(1.960784%,28.235295%,64.705884%);fill-opacity:1;" d="M 100.695312 11.875 C 100.867188 11.914062 101.039062 11.953125 101.242188 11.996094 C 100.75 12.21875 100.558594 12.636719 100.542969 13.21875 C 100.484375 13.269531 100.4375 13.269531 100.355469 13.214844 C 100.445312 12.730469 100.570312 12.304688 100.695312 11.875 Z M 100.695312 11.875 "/>
<path style=" stroke:none;fill-rule:nonzero;fill:rgb(1.960784%,28.235295%,64.313728%);fill-opacity:1;" d="M 84.507812 11.796875 C 84.757812 11.75 85.011719 11.75 85.3125 11.78125 C 85.320312 11.957031 85.285156 12.097656 85.25 12.242188 C 85.25 12.242188 85.246094 12.253906 85.210938 12.253906 C 85.121094 12.285156 85.066406 12.316406 85.011719 12.34375 C 84.910156 12.398438 84.8125 12.449219 84.667969 12.476562 C 84.625 12.425781 84.625 12.40625 84.625 12.382812 C 84.585938 12.203125 84.550781 12.023438 84.507812 11.796875 Z M 84.507812 11.796875 "/>
<path style=" stroke:none;fill-rule:nonzero;fill:rgb(1.960784%,28.235295%,64.313728%);fill-opacity:1;" d="M 83.613281 15.5 C 83.417969 15.390625 83.222656 15.230469 83.023438 15.085938 C 82.917969 15.007812 82.800781 14.945312 82.652344 14.894531 C 82.617188 14.734375 82.613281 14.5625 82.613281 14.335938 C 82.945312 14.675781 83.273438 15.066406 83.613281 15.5 Z M 83.613281 15.5 "/>
<path style=" stroke:none;fill-rule:nonzero;fill:rgb(1.960784%,28.235295%,64.313728%);fill-opacity:1;" d="M 82.269531 19.886719 C 82.816406 20.125 82.671875 20.53125 82.410156 20.960938 C 82.332031 20.625 82.296875 20.28125 82.269531 19.886719 Z M 82.269531 19.886719 "/>
<path style=" stroke:none;fill-rule:nonzero;fill:rgb(7.058824%,26.274511%,54.901963%);fill-opacity:1;" d="M 105.503906 18.179688 C 105.460938 18.066406 105.449219 17.933594 105.4375 17.738281 C 105.277344 17.867188 105.160156 17.960938 105.003906 18.0625 C 104.96875 18.027344 104.957031 17.96875 104.980469 17.949219 C 105.148438 17.78125 105.324219 17.625 105.5 17.464844 C 105.515625 17.691406 105.527344 17.921875 105.503906 18.179688 Z M 105.503906 18.179688 "/>
<path style=" stroke:none;fill-rule:nonzero;fill:rgb(1.960784%,27.450982%,63.529414%);fill-opacity:1;" d="M 85.296875 12.242188 C 85.285156 12.097656 85.320312 11.957031 85.367188 11.78125 C 85.542969 11.832031 85.707031 11.910156 85.875 12.035156 C 85.699219 12.132812 85.523438 12.1875 85.296875 12.242188 Z M 85.296875 12.242188 "/>
<path style=" stroke:none;fill-rule:nonzero;fill:rgb(8.627451%,30.19608%,62.7451%);fill-opacity:1;" d="M 66.375 11.519531 C 66.308594 11.691406 66.199219 11.855469 66.074219 12.046875 C 66.015625 12.027344 65.96875 11.980469 65.914062 11.875 C 65.886719 11.800781 65.875 11.785156 65.859375 11.765625 C 66.015625 11.679688 66.171875 11.59375 66.375 11.519531 Z M 66.375 11.519531 "/>
<path style=" stroke:none;fill-rule:nonzero;fill:rgb(7.058824%,26.274511%,54.901963%);fill-opacity:1;" d="M 104.804688 18.339844 C 104.941406 18.671875 104.855469 18.90625 104.414062 18.953125 C 104.507812 18.757812 104.636719 18.558594 104.804688 18.339844 Z M 104.804688 18.339844 "/>
<path style=" stroke:none;fill-rule:nonzero;fill:rgb(2.745098%,28.235295%,52.156866%);fill-opacity:1;" d="M 30.113281 3.613281 C 29.875 3.640625 29.605469 3.628906 29.292969 3.589844 C 29.53125 3.566406 29.804688 3.570312 30.113281 3.613281 Z M 30.113281 3.613281 "/>
<path style=" stroke:none;fill-rule:nonzero;fill:rgb(1.960784%,28.235295%,64.313728%);fill-opacity:1;" d="M 82.609375 14.238281 C 82.554688 14.277344 82.5 14.277344 82.40625 14.230469 C 82.363281 14.089844 82.363281 13.992188 82.363281 13.898438 C 82.363281 13.898438 82.363281 13.898438 82.40625 13.898438 C 82.503906 13.898438 82.558594 13.898438 82.613281 13.898438 C 82.613281 13.898438 82.648438 13.929688 82.667969 13.945312 C 82.65625 14.042969 82.632812 14.117188 82.609375 14.238281 Z M 82.609375 14.238281 "/>
<path style=" stroke:none;fill-rule:nonzero;fill:rgb(7.058824%,26.274511%,54.901963%);fill-opacity:1;" d="M 105.125 19.4375 C 105.105469 19.339844 105.121094 19.214844 105.171875 19.085938 C 105.195312 19.1875 105.175781 19.300781 105.125 19.4375 Z M 105.125 19.4375 "/>
<path style=" stroke:none;fill-rule:nonzero;fill:rgb(1.960784%,27.450982%,63.529414%);fill-opacity:1;" d="M 84.582031 12.382812 C 84.625 12.40625 84.625 12.425781 84.625 12.484375 C 84.566406 12.582031 84.503906 12.648438 84.40625 12.71875 C 84.371094 12.632812 84.371094 12.550781 84.375 12.425781 C 84.429688 12.382812 84.484375 12.382812 84.582031 12.382812 Z M 84.582031 12.382812 "/>
<path style=" stroke:none;fill-rule:nonzero;fill:rgb(1.960784%,28.235295%,64.313728%);fill-opacity:1;" d="M 81.40625 13.894531 C 81.363281 13.902344 81.359375 13.847656 81.363281 13.820312 C 81.421875 13.714844 81.484375 13.636719 81.582031 13.546875 C 81.558594 13.652344 81.503906 13.769531 81.40625 13.894531 Z M 81.40625 13.894531 "/>
<path style=" stroke:none;fill-rule:nonzero;fill:rgb(7.058824%,26.274511%,54.901963%);fill-opacity:1;" d="M 105.375 18.671875 C 105.351562 18.585938 105.367188 18.472656 105.410156 18.339844 C 105.429688 18.425781 105.417969 18.539062 105.375 18.671875 Z M 105.375 18.671875 "/>
<path style=" stroke:none;fill-rule:nonzero;fill:rgb(1.960784%,28.235295%,64.705884%);fill-opacity:1;" d="M 102.792969 20.222656 C 102.761719 20.277344 102.695312 20.339844 102.605469 20.375 C 102.640625 20.308594 102.699219 20.269531 102.792969 20.222656 Z M 102.792969 20.222656 "/>
<path style=" stroke:none;fill-rule:nonzero;fill:rgb(7.058824%,26.274511%,54.901963%);fill-opacity:1;" d="M 104.960938 19.75 C 104.960938 19.710938 105.003906 19.707031 105.027344 19.703125 C 105.046875 19.777344 105.039062 19.851562 105 19.945312 C 104.964844 19.90625 104.964844 19.851562 104.960938 19.75 Z M 104.960938 19.75 "/>
<path style=" stroke:none;fill-rule:nonzero;fill:rgb(7.058824%,26.274511%,54.901963%);fill-opacity:1;" d="M 104.75 20.710938 C 104.730469 20.660156 104.746094 20.59375 104.785156 20.5 C 104.800781 20.546875 104.789062 20.617188 104.75 20.710938 Z M 104.75 20.710938 "/>
<path style=" stroke:none;fill-rule:nonzero;fill:rgb(7.058824%,26.274511%,54.901963%);fill-opacity:1;" d="M 104.578125 20.890625 C 104.578125 20.847656 104.632812 20.84375 104.660156 20.84375 C 104.675781 20.914062 104.664062 20.988281 104.621094 21.085938 C 104.585938 21.046875 104.582031 20.992188 104.578125 20.890625 Z M 104.578125 20.890625 "/>
<path style=" stroke:none;fill-rule:nonzero;fill:rgb(1.960784%,27.450982%,63.529414%);fill-opacity:1;" d="M 85.046875 12.351562 C 85.066406 12.316406 85.121094 12.285156 85.207031 12.253906 C 85.183594 12.285156 85.132812 12.320312 85.046875 12.351562 Z M 85.046875 12.351562 "/>
<path style=" stroke:none;fill-rule:nonzero;fill:rgb(2.745098%,28.235295%,52.156866%);fill-opacity:1;" d="M 30.660156 27.394531 C 30.636719 27.363281 30.652344 27.335938 30.699219 27.296875 C 30.734375 27.328125 30.722656 27.359375 30.660156 27.394531 Z M 30.660156 27.394531 "/>
<path style=" stroke:none;fill-rule:nonzero;fill:rgb(1.960784%,28.235295%,64.313728%);fill-opacity:1;" d="M 65.851562 11.789062 C 65.875 11.785156 65.886719 11.800781 65.90625 11.839844 C 65.882812 11.851562 65.859375 11.835938 65.851562 11.789062 Z M 65.851562 11.789062 "/>
<path style=" stroke:none;fill-rule:nonzero;fill:rgb(7.058824%,26.274511%,54.901963%);fill-opacity:1;" d="M 104.859375 20.324219 C 104.84375 20.300781 104.859375 20.273438 104.898438 20.234375 C 104.933594 20.257812 104.921875 20.289062 104.859375 20.324219 Z M 104.859375 20.324219 "/>
<path style=" stroke:none;fill-rule:nonzero;fill:rgb(7.058824%,26.274511%,54.901963%);fill-opacity:1;" d="M 104.464844 21.390625 C 104.460938 21.355469 104.511719 21.351562 104.539062 21.347656 C 104.554688 21.386719 104.539062 21.425781 104.5 21.480469 C 104.46875 21.472656 104.464844 21.449219 104.464844 21.390625 Z M 104.464844 21.390625 "/>
<path style=" stroke:none;fill-rule:nonzero;fill:rgb(1.960784%,28.235295%,64.313728%);fill-opacity:1;" d="M 81.835938 13.285156 C 81.847656 13.3125 81.828125 13.34375 81.773438 13.378906 C 81.75 13.351562 81.769531 13.316406 81.835938 13.285156 Z M 81.835938 13.285156 "/>
<path style=" stroke:none;fill-rule:nonzero;fill:rgb(1.960784%,28.235295%,64.313728%);fill-opacity:1;" d="M 81.710938 13.417969 C 81.722656 13.441406 81.703125 13.472656 81.652344 13.507812 C 81.628906 13.480469 81.648438 13.449219 81.710938 13.417969 Z M 81.710938 13.417969 "/>
<path style=" stroke:none;fill-rule:nonzero;fill:rgb(1.960784%,28.235295%,64.313728%);fill-opacity:1;" d="M 80.496094 16.457031 C 80.527344 16.441406 80.554688 16.464844 80.59375 16.527344 C 80.5625 16.546875 80.527344 16.523438 80.496094 16.457031 Z M 80.496094 16.457031 "/>
<path style=" stroke:none;fill-rule:nonzero;fill:rgb(7.058824%,26.274511%,54.901963%);fill-opacity:1;" d="M 105.238281 19.0625 C 105.21875 19.039062 105.234375 19.011719 105.277344 18.96875 C 105.308594 18.992188 105.296875 19.027344 105.238281 19.0625 Z M 105.238281 19.0625 "/>
<path style=" stroke:none;fill-rule:nonzero;fill:rgb(7.058824%,26.274511%,54.901963%);fill-opacity:1;" d="M 104.9375 18.082031 C 104.957031 18.105469 104.945312 18.136719 104.898438 18.183594 C 104.863281 18.15625 104.871094 18.121094 104.9375 18.082031 Z M 104.9375 18.082031 "/>
<path style=" stroke:none;fill-rule:nonzero;fill:rgb(1.960784%,28.235295%,64.313728%);fill-opacity:1;" d="M 80.449219 16.296875 C 80.480469 16.296875 80.480469 16.359375 80.484375 16.386719 C 80.441406 16.414062 80.40625 16.390625 80.371094 16.328125 C 80.359375 16.300781 80.417969 16.296875 80.449219 16.296875 Z M 80.449219 16.296875 "/>
<path style=" stroke:none;fill-rule:nonzero;fill:rgb(0%,0%,0%);fill-opacity:1;" d="M 28.425781 18.8125 C 28.417969 19.164062 28.410156 19.515625 28.410156 19.945312 C 28.417969 20.027344 28.429688 20.078125 28.429688 20.078125 C 28.421875 20.257812 28.414062 20.441406 28.40625 20.734375 C 28.390625 21.230469 28.371094 21.617188 28.296875 22.003906 C 27.179688 21.917969 26.117188 21.832031 25.03125 21.710938 C 25.03125 21.484375 25.058594 21.289062 25.089844 21.039062 C 25.101562 20.128906 25.117188 19.273438 25.105469 18.421875 C 25.097656 17.542969 24.886719 17.339844 24.007812 17.257812 C 23.984375 16.984375 23.972656 16.769531 23.96875 16.492188 C 23.972656 15.089844 23.96875 13.742188 23.980469 12.394531 C 23.984375 12.207031 24.050781 12 24.148438 11.835938 C 24.488281 11.273438 24.378906 10.894531 23.773438 10.648438 C 21.4375 9.707031 19.105469 8.753906 16.761719 7.832031 C 16.511719 7.734375 16.160156 7.722656 15.914062 7.820312 C 13.511719 8.777344 11.121094 9.757812 8.734375 10.761719 C 8.550781 10.839844 8.367188 11.113281 8.339844 11.316406 C 8.320312 11.480469 8.5 11.757812 8.660156 11.839844 C 9.230469 12.128906 9.832031 12.359375 10.453125 12.613281 C 10.503906 12.613281 10.527344 12.605469 10.578125 12.609375 C 10.632812 12.621094 10.652344 12.628906 10.675781 12.695312 C 10.679688 13.933594 10.6875 15.117188 10.6875 16.351562 C 10.613281 16.871094 10.75 17.234375 11.117188 17.566406 C 12.027344 18.386719 13.070312 18.953125 14.234375 19.273438 C 16.683594 19.949219 18.9375 19.523438 20.980469 17.988281 C 21.300781 17.746094 21.648438 17.539062 22.003906 17.359375 C 21.929688 17.800781 21.761719 18.191406 21.742188 18.585938 C 21.699219 19.625 21.722656 20.664062 21.667969 21.722656 C 21.292969 21.78125 20.96875 21.867188 20.652344 21.851562 C 19.066406 21.753906 17.507812 21.511719 15.996094 20.984375 C 13.71875 20.191406 11.703125 18.96875 10.050781 17.222656 C 9.105469 16.222656 8.261719 15.09375 7.527344 13.921875 C 6.414062 12.148438 5.753906 10.183594 5.523438 8.085938 C 5.441406 7.332031 5.355469 6.578125 5.273438 5.824219 C 7.214844 5.816406 9.152344 5.800781 11.09375 5.800781 C 16.5625 5.796875 22.03125 5.792969 27.5 5.8125 C 27.789062 5.8125 28.082031 6.019531 28.386719 6.21875 C 28.40625 6.429688 28.414062 6.550781 28.421875 6.671875 C 28.414062 7.152344 28.40625 7.632812 28.402344 8.230469 C 28.410156 8.972656 28.414062 9.601562 28.421875 10.226562 C 28.414062 10.910156 28.40625 11.59375 28.402344 12.390625 C 28.414062 14.609375 28.421875 16.710938 28.425781 18.8125 Z M 28.425781 18.8125 "/>
<path style=" stroke:none;fill-rule:nonzero;fill:rgb(86.666667%,90.980393%,93.333334%);fill-opacity:1;" d="M 5.230469 5.808594 C 5.355469 6.578125 5.441406 7.332031 5.523438 8.085938 C 5.753906 10.183594 6.414062 12.148438 7.527344 13.921875 C 8.261719 15.09375 9.105469 16.222656 10.050781 17.222656 C 11.703125 18.96875 13.71875 20.191406 15.996094 20.984375 C 17.507812 21.511719 19.066406 21.753906 20.652344 21.851562 C 20.96875 21.867188 21.292969 21.78125 21.703125 21.757812 C 22.878906 22.136719 23.96875 22.179688 25.050781 21.746094 C 26.117188 21.832031 27.179688 21.917969 28.308594 22.058594 C 28.488281 22.871094 28.378906 23.007812 27.617188 23.007812 C 24.761719 23.011719 21.90625 23.007812 19.050781 23.011719 C 18.757812 23.015625 18.46875 23.046875 18.179688 23.066406 C 17.886719 23.0625 17.59375 23.058594 17.195312 23.050781 C 14.875 23.046875 12.667969 23.039062 10.460938 23.042969 C 8.5625 23.046875 6.667969 23.070312 4.773438 23.082031 C 4.257812 22.984375 4.15625 22.644531 4.15625 22.160156 C 4.164062 17.886719 4.15625 13.613281 4.140625 9.28125 C 4.140625 8.351562 4.152344 7.480469 4.164062 6.609375 C 4.171875 5.796875 4.375 5.628906 5.230469 5.808594 Z M 5.230469 5.808594 "/>
<path style=" stroke:none;fill-rule:nonzero;fill:rgb(76.862746%,63.529414%,20%);fill-opacity:1;" d="M 11.847656 24.332031 C 11.949219 24.21875 12.054688 24.015625 12.15625 24.015625 C 14.96875 24.011719 17.78125 24.027344 20.597656 24.042969 C 20.636719 24.042969 20.675781 24.0625 20.761719 24.089844 C 20.539062 24.550781 20.296875 25.011719 19.988281 25.429688 C 19.894531 25.558594 19.628906 25.613281 19.445312 25.617188 C 17.382812 25.628906 15.320312 25.605469 13.257812 25.644531 C 12.558594 25.65625 12.472656 25.058594 12.097656 24.640625 C 12.019531 24.546875 11.976562 24.519531 11.9375 24.492188 C 11.9375 24.492188 11.9375 24.507812 11.941406 24.46875 C 11.910156 24.402344 11.871094 24.375 11.832031 24.347656 C 11.832031 24.347656 11.84375 24.339844 11.847656 24.332031 M 15.382812 25.160156 C 16.640625 25.160156 17.894531 25.132812 19.148438 25.171875 C 19.820312 25.195312 20.214844 24.957031 20.359375 24.335938 C 17.847656 24.335938 15.351562 24.335938 12.855469 24.335938 C 13.554688 25.015625 14.351562 25.269531 15.382812 25.160156 Z M 15.382812 25.160156 "/>
<path style=" stroke:none;fill-rule:nonzero;fill:rgb(27.058825%,46.27451%,69.01961%);fill-opacity:1;" d="M 18.183594 23.09375 C 18.46875 23.046875 18.757812 23.015625 19.050781 23.011719 C 21.90625 23.007812 24.761719 23.011719 27.617188 23.007812 C 28.378906 23.007812 28.488281 22.871094 28.363281 22.058594 C 28.371094 21.617188 28.390625 21.230469 28.417969 20.785156 C 28.441406 21.449219 28.515625 22.179688 28.425781 22.886719 C 28.402344 23.042969 27.785156 23.210938 27.4375 23.214844 C 24.40625 23.238281 21.375 23.226562 18.285156 23.222656 C 18.214844 23.183594 18.203125 23.152344 18.183594 23.09375 Z M 18.183594 23.09375 "/>
<path style=" stroke:none;fill-rule:nonzero;fill:rgb(27.058825%,46.27451%,69.01961%);fill-opacity:1;" d="M 28.46875 18.792969 C 28.421875 16.710938 28.414062 14.609375 28.414062 12.449219 C 28.484375 12.511719 28.601562 12.628906 28.601562 12.746094 C 28.613281 14.683594 28.609375 16.617188 28.605469 18.554688 C 28.601562 18.628906 28.542969 18.703125 28.46875 18.792969 Z M 28.46875 18.792969 "/>
<path style=" stroke:none;fill-rule:nonzero;fill:rgb(27.058825%,46.27451%,69.01961%);fill-opacity:1;" d="M 28.464844 10.207031 C 28.414062 9.601562 28.410156 8.972656 28.414062 8.289062 C 28.449219 8.882812 28.476562 9.535156 28.464844 10.207031 Z M 28.464844 10.207031 "/>
<path style=" stroke:none;fill-rule:nonzero;fill:rgb(27.058825%,46.27451%,69.01961%);fill-opacity:1;" d="M 28.441406 6.644531 C 28.414062 6.550781 28.40625 6.429688 28.410156 6.265625 C 28.429688 6.351562 28.445312 6.484375 28.441406 6.644531 Z M 28.441406 6.644531 "/>
<path style=" stroke:none;fill-rule:nonzero;fill:rgb(27.058825%,46.27451%,69.01961%);fill-opacity:1;" d="M 28.449219 20.074219 C 28.429688 20.078125 28.417969 20.027344 28.421875 20.003906 C 28.460938 19.988281 28.492188 20 28.523438 20.011719 C 28.507812 20.03125 28.488281 20.050781 28.449219 20.074219 Z M 28.449219 20.074219 "/>
<path style=" stroke:none;fill-rule:nonzero;fill:rgb(2.745098%,28.235295%,52.156866%);fill-opacity:1;" d="M 11.949219 24.527344 C 11.976562 24.519531 12.019531 24.546875 12.066406 24.613281 C 12.035156 24.621094 11.996094 24.59375 11.949219 24.527344 Z M 11.949219 24.527344 "/>
<path style=" stroke:none;fill-rule:nonzero;fill:rgb(2.745098%,28.235295%,52.156866%);fill-opacity:1;" d="M 11.835938 24.382812 C 11.871094 24.375 11.910156 24.402344 11.949219 24.464844 C 11.914062 24.476562 11.878906 24.449219 11.835938 24.382812 Z M 11.835938 24.382812 "/>
<path style=" stroke:none;fill-rule:nonzero;fill:rgb(0%,0%,0%);fill-opacity:1;" d="M 59.378906 14.042969 C 59.40625 13.539062 59.234375 13.019531 59.8125 12.792969 C 60.355469 12.578125 61.105469 12.777344 61.398438 13.1875 C 61.726562 13.648438 61.53125 14.617188 60.949219 15.039062 C 60.507812 15.355469 59.988281 15.566406 59.378906 15.894531 C 59.378906 15.175781 59.378906 14.640625 59.378906 14.042969 Z M 59.378906 14.042969 "/>
<path style=" stroke:none;fill-rule:nonzero;fill:rgb(2.352941%,23.529412%,45.09804%);fill-opacity:1;" d="M 4.796875 23.121094 C 6.667969 23.070312 8.5625 23.046875 10.460938 23.042969 C 12.667969 23.039062 14.875 23.046875 17.140625 23.070312 C 17.050781 23.140625 16.90625 23.242188 16.761719 23.242188 C 12.878906 23.25 8.996094 23.25 5.109375 23.246094 C 5.015625 23.246094 4.917969 23.191406 4.796875 23.121094 Z M 4.796875 23.121094 "/>
<path style=" stroke:none;fill-rule:nonzero;fill:rgb(0%,29.019609%,67.843139%);fill-opacity:1;" d="M 100.640625 11.875 C 100.570312 12.304688 100.445312 12.730469 100.320312 13.214844 C 100.320312 15.25 100.320312 17.230469 100.28125 19.277344 C 100.207031 19.382812 100.171875 19.425781 100.132812 19.464844 C 100.195312 19.503906 100.253906 19.542969 100.316406 19.585938 C 100.316406 19.640625 100.320312 19.695312 100.320312 19.792969 C 100.402344 20.101562 100.484375 20.367188 100.570312 20.675781 C 100.679688 20.828125 100.785156 20.933594 100.917969 21.070312 C 100.648438 21.207031 100.355469 21.394531 100.054688 21.40625 C 99.15625 21.449219 98.257812 21.421875 97.402344 21.421875 C 97.460938 20.574219 97.550781 19.910156 97.546875 19.242188 C 97.542969 17.214844 97.507812 15.183594 97.476562 13.152344 C 97.472656 12.761719 97.449219 12.371094 97.429688 11.929688 C 98.484375 11.875 99.535156 11.875 100.640625 11.875 Z M 100.640625 11.875 "/>
<path style=" stroke:none;fill-rule:nonzero;fill:rgb(0.784314%,29.019609%,69.01961%);fill-opacity:1;" d="M 79.597656 11.796875 C 79.695312 11.75 79.789062 11.75 79.933594 11.75 C 79.917969 11.984375 79.855469 12.214844 79.761719 12.480469 C 79.277344 12.375 79.554688 12.082031 79.597656 11.796875 Z M 79.597656 11.796875 "/>
<path style=" stroke:none;fill-rule:nonzero;fill:rgb(0.392157%,29.019609%,68.235296%);fill-opacity:1;" d="M 82.339844 13.882812 C 82.363281 13.992188 82.363281 14.089844 82.363281 14.230469 C 82.214844 14.195312 82.070312 14.117188 81.984375 14.007812 C 82.070312 13.910156 82.089844 13.84375 82.113281 13.773438 C 82.132812 13.773438 82.15625 13.773438 82.207031 13.773438 C 82.253906 13.8125 82.277344 13.84375 82.339844 13.882812 Z M 82.339844 13.882812 "/>
<path style=" stroke:none;fill-rule:nonzero;fill:rgb(1.960784%,28.235295%,64.313728%);fill-opacity:1;" d="M 78.910156 17.164062 C 79.023438 17.214844 79.113281 17.296875 79.199219 17.378906 C 79.144531 17.429688 79.089844 17.480469 79.035156 17.53125 C 78.984375 17.417969 78.933594 17.308594 78.910156 17.164062 Z M 78.910156 17.164062 "/>
<path style=" stroke:none;fill-rule:nonzero;fill:rgb(1.960784%,28.235295%,64.313728%);fill-opacity:1;" d="M 78.722656 14.277344 C 78.742188 14.132812 78.765625 13.992188 78.785156 13.847656 C 78.839844 13.859375 78.894531 13.875 78.949219 13.886719 C 78.902344 14.011719 78.855469 14.136719 78.765625 14.269531 C 78.722656 14.277344 78.722656 14.277344 78.722656 14.277344 Z M 78.722656 14.277344 "/>
<path style=" stroke:none;fill-rule:nonzero;fill:rgb(1.960784%,28.235295%,64.313728%);fill-opacity:1;" d="M 81.378906 15.324219 C 81.375 15.25 81.398438 15.21875 81.460938 15.179688 C 81.597656 15.207031 81.710938 15.25 81.824219 15.292969 C 81.769531 15.359375 81.714844 15.425781 81.65625 15.488281 C 81.570312 15.445312 81.484375 15.402344 81.378906 15.324219 Z M 81.378906 15.324219 "/>
<path style=" stroke:none;fill-rule:nonzero;fill:rgb(1.960784%,28.235295%,64.313728%);fill-opacity:1;" d="M 79.195312 12.480469 C 79.128906 12.511719 79.070312 12.503906 79.011719 12.496094 C 79.023438 12.445312 79.035156 12.394531 79.050781 12.339844 C 79.101562 12.375 79.152344 12.410156 79.195312 12.480469 Z M 79.195312 12.480469 "/>
<path style=" stroke:none;fill-rule:nonzero;fill:rgb(1.960784%,28.235295%,64.313728%);fill-opacity:1;" d="M 78.722656 14.277344 C 78.6875 14.339844 78.648438 14.402344 78.613281 14.460938 C 78.589844 14.441406 78.5625 14.417969 78.539062 14.398438 C 78.578125 14.363281 78.617188 14.324219 78.691406 14.285156 C 78.722656 14.277344 78.722656 14.277344 78.722656 14.277344 Z M 78.722656 14.277344 "/>
<path style=" stroke:none;fill-rule:nonzero;fill:rgb(1.960784%,28.235295%,64.313728%);fill-opacity:1;" d="M 78.554688 16.371094 C 78.605469 16.386719 78.636719 16.417969 78.664062 16.449219 C 78.652344 16.464844 78.628906 16.488281 78.628906 16.488281 C 78.59375 16.457031 78.566406 16.425781 78.554688 16.371094 Z M 78.554688 16.371094 "/>
<path style=" stroke:none;fill-rule:nonzero;fill:rgb(1.960784%,28.235295%,64.313728%);fill-opacity:1;" d="M 82.085938 13.796875 C 82.089844 13.84375 82.070312 13.910156 82.015625 14.003906 C 82.011719 13.957031 82.03125 13.886719 82.085938 13.796875 Z M 82.085938 13.796875 "/>
<path style=" stroke:none;fill-rule:nonzero;fill:rgb(0.392157%,29.411766%,68.627453%);fill-opacity:1;" d="M 85.832031 20.847656 C 86.125 21.339844 85.636719 21.207031 85.421875 21.347656 C 85.359375 21.0625 85.394531 20.8125 85.832031 20.847656 Z M 85.832031 20.847656 "/>
<path style=" stroke:none;fill-rule:nonzero;fill:rgb(1.960784%,28.235295%,64.313728%);fill-opacity:1;" d="M 83.164062 18.242188 C 83.058594 18.214844 82.980469 18.15625 82.902344 18.097656 C 82.945312 18.058594 82.984375 18.019531 83.023438 17.980469 C 83.082031 18.058594 83.136719 18.136719 83.164062 18.242188 Z M 83.164062 18.242188 "/>
<path style=" stroke:none;fill-rule:nonzero;fill:rgb(0.784314%,29.019609%,69.01961%);fill-opacity:1;" d="M 80.007812 11.75 C 79.980469 11.75 79.980469 11.6875 79.980469 11.65625 C 80.03125 11.648438 80.082031 11.667969 80.128906 11.6875 C 80.097656 11.707031 80.066406 11.726562 80.007812 11.75 Z M 80.007812 11.75 "/>
<path style=" stroke:none;fill-rule:nonzero;fill:rgb(1.960784%,28.235295%,64.313728%);fill-opacity:1;" d="M 82.992188 12.507812 C 82.945312 12.351562 82.941406 12.199219 82.9375 12.050781 C 83.136719 12.152344 83.332031 12.25 83.53125 12.347656 C 83.503906 12.417969 83.480469 12.488281 83.453125 12.558594 C 83.3125 12.542969 83.175781 12.527344 82.992188 12.507812 Z M 82.992188 12.507812 "/>
<path style=" stroke:none;fill-rule:nonzero;fill:rgb(1.960784%,28.235295%,64.705884%);fill-opacity:1;" d="M 100.316406 19.542969 C 100.253906 19.542969 100.195312 19.503906 100.132812 19.464844 C 100.171875 19.425781 100.207031 19.382812 100.28125 19.339844 C 100.316406 19.386719 100.316406 19.445312 100.316406 19.542969 Z M 100.316406 19.542969 "/>
<path style=" stroke:none;fill-rule:nonzero;fill:rgb(0.392157%,29.019609%,68.235296%);fill-opacity:1;" d="M 82.609375 13.859375 C 82.558594 13.898438 82.503906 13.898438 82.40625 13.898438 C 82.402344 13.835938 82.445312 13.773438 82.484375 13.710938 C 82.523438 13.75 82.5625 13.785156 82.609375 13.859375 Z M 82.609375 13.859375 "/>
<path style=" stroke:none;fill-rule:nonzero;fill:rgb(2.352941%,32.941177%,74.117649%);fill-opacity:1;" d="M 10.675781 12.636719 C 10.652344 12.628906 10.632812 12.621094 10.566406 12.59375 C 10.476562 12.550781 10.441406 12.566406 10.417969 12.609375 C 9.832031 12.359375 9.230469 12.128906 8.660156 11.839844 C 8.5 11.757812 8.320312 11.480469 8.339844 11.316406 C 8.367188 11.113281 8.550781 10.839844 8.734375 10.761719 C 11.121094 9.757812 13.511719 8.777344 15.914062 7.820312 C 16.160156 7.722656 16.511719 7.734375 16.761719 7.832031 C 19.105469 8.753906 21.4375 9.707031 23.773438 10.648438 C 24.378906 10.894531 24.488281 11.273438 24.148438 11.835938 C 24.050781 12 23.984375 12.207031 23.980469 12.394531 C 23.96875 13.742188 23.972656 15.089844 23.941406 16.53125 C 23.851562 16.808594 23.796875 16.988281 23.742188 17.171875 C 23.679688 17.167969 23.617188 17.167969 23.558594 17.164062 C 23.53125 16.960938 23.480469 16.757812 23.480469 16.554688 C 23.472656 15.269531 23.484375 13.984375 23.464844 12.703125 C 23.460938 12.519531 23.324219 12.34375 23.25 12.164062 C 23.117188 12.238281 22.984375 12.3125 22.820312 12.382812 C 22.789062 12.378906 22.730469 12.382812 22.703125 12.390625 C 22.640625 12.414062 22.613281 12.4375 22.554688 12.480469 C 22.332031 12.582031 22.152344 12.671875 21.9375 12.746094 C 21.59375 12.824219 21.285156 12.898438 20.988281 13.015625 C 19.652344 13.535156 18.292969 14.007812 17 14.625 C 16.492188 14.867188 16.125 14.839844 15.664062 14.648438 C 14.003906 13.964844 12.335938 13.304688 10.675781 12.636719 Z M 10.675781 12.636719 "/>
<path style=" stroke:none;fill-rule:nonzero;fill:rgb(1.960784%,32.941177%,74.117649%);fill-opacity:1;" d="M 21.984375 17.3125 C 21.648438 17.539062 21.300781 17.746094 20.980469 17.988281 C 18.9375 19.523438 16.683594 19.949219 14.234375 19.273438 C 13.070312 18.953125 12.027344 18.386719 11.117188 17.566406 C 10.75 17.234375 10.613281 16.871094 10.714844 16.308594 C 10.753906 15.285156 10.753906 14.359375 10.753906 13.378906 C 11.019531 13.429688 11.101562 13.433594 11.175781 13.464844 C 12.597656 14.046875 14 14.679688 15.445312 15.191406 C 15.953125 15.367188 16.59375 15.347656 17.128906 15.222656 C 17.789062 15.066406 18.390625 14.679688 19.03125 14.4375 C 19.996094 14.070312 20.976562 13.742188 21.957031 13.453125 C 22.003906 13.890625 22.089844 14.277344 22.082031 14.664062 C 22.070312 15.546875 22.015625 16.433594 21.976562 17.3125 C 21.976562 17.308594 21.984375 17.3125 21.984375 17.3125 Z M 21.984375 17.3125 "/>
<path style=" stroke:none;fill-rule:nonzero;fill:rgb(93.725491%,30.588236%,6.666667%);fill-opacity:1;" d="M 24.023438 17.308594 C 24.886719 17.339844 25.097656 17.542969 25.105469 18.421875 C 25.117188 19.273438 25.101562 20.128906 25.046875 21.015625 C 24.601562 21.027344 24.210938 20.988281 23.820312 20.980469 C 23.023438 20.96875 22.867188 20.84375 22.863281 20.039062 C 22.855469 19.171875 22.894531 18.300781 22.972656 17.433594 C 23.363281 17.390625 23.691406 17.351562 24.023438 17.308594 Z M 24.023438 17.308594 "/>
<path style=" stroke:none;fill-rule:nonzero;fill:rgb(0.784314%,28.235295%,56.862748%);fill-opacity:1;" d="M 21.949219 13.398438 C 20.976562 13.742188 19.996094 14.070312 19.03125 14.4375 C 18.390625 14.679688 17.789062 15.066406 17.128906 15.222656 C 16.59375 15.347656 15.953125 15.367188 15.445312 15.191406 C 14 14.679688 12.597656 14.046875 11.175781 13.464844 C 11.101562 13.433594 11.019531 13.429688 10.753906 13.378906 C 10.753906 14.359375 10.753906 15.285156 10.722656 16.253906 C 10.6875 15.117188 10.679688 13.933594 10.675781 12.695312 C 12.335938 13.304688 14.003906 13.964844 15.664062 14.648438 C 16.125 14.839844 16.492188 14.867188 17 14.625 C 18.292969 14.007812 19.652344 13.535156 20.988281 13.015625 C 21.285156 12.898438 21.59375 12.824219 21.933594 12.800781 C 21.960938 13.046875 21.957031 13.222656 21.949219 13.398438 Z M 21.949219 13.398438 "/>
<path style=" stroke:none;fill-rule:nonzero;fill:rgb(77.254903%,16.862746%,4.313726%);fill-opacity:1;" d="M 22.914062 17.433594 C 22.894531 18.300781 22.855469 19.171875 22.863281 20.039062 C 22.867188 20.84375 23.023438 20.96875 23.820312 20.980469 C 24.210938 20.988281 24.601562 21.027344 25.035156 21.074219 C 25.058594 21.289062 25.03125 21.484375 25.03125 21.710938 C 23.96875 22.179688 22.878906 22.136719 21.753906 21.738281 C 21.722656 20.664062 21.699219 19.625 21.742188 18.585938 C 21.761719 18.191406 21.929688 17.800781 22.003906 17.359375 C 21.984375 17.3125 21.976562 17.308594 22.023438 17.335938 C 22.285156 17.347656 22.496094 17.332031 22.738281 17.328125 C 22.816406 17.371094 22.867188 17.402344 22.914062 17.433594 Z M 22.914062 17.433594 "/>
<path style=" stroke:none;fill-rule:nonzero;fill:rgb(2.745098%,27.058825%,53.725493%);fill-opacity:1;" d="M 22.972656 17.433594 C 22.867188 17.402344 22.816406 17.371094 22.765625 17.285156 C 22.777344 17.050781 22.804688 16.871094 22.808594 16.691406 C 22.824219 15.257812 22.835938 13.820312 22.851562 12.386719 C 22.984375 12.3125 23.117188 12.238281 23.25 12.164062 C 23.324219 12.34375 23.460938 12.519531 23.464844 12.703125 C 23.484375 13.984375 23.472656 15.269531 23.480469 16.554688 C 23.480469 16.757812 23.53125 16.960938 23.558594 17.164062 C 23.617188 17.167969 23.679688 17.167969 23.742188 17.171875 C 23.796875 16.988281 23.851562 16.808594 23.9375 16.589844 C 23.972656 16.769531 23.984375 16.984375 24.007812 17.257812 C 23.691406 17.351562 23.363281 17.390625 22.972656 17.433594 Z M 22.972656 17.433594 "/>
<path style=" stroke:none;fill-rule:nonzero;fill:rgb(0.784314%,28.235295%,56.862748%);fill-opacity:1;" d="M 10.453125 12.613281 C 10.441406 12.566406 10.476562 12.550781 10.535156 12.585938 C 10.527344 12.605469 10.503906 12.613281 10.453125 12.613281 Z M 10.453125 12.613281 "/>
<path style=" stroke:none;fill-rule:nonzero;fill:rgb(98.431373%,72.941178%,0.784314%);fill-opacity:1;" d="M 15.324219 25.160156 C 14.351562 25.269531 13.554688 25.015625 12.855469 24.335938 C 15.351562 24.335938 17.847656 24.335938 20.359375 24.335938 C 20.214844 24.957031 19.820312 25.195312 19.148438 25.171875 C 17.894531 25.132812 16.640625 25.160156 15.324219 25.160156 Z M 15.324219 25.160156 "/>
<path style=" stroke:none;fill-rule:nonzero;fill:rgb(0%,0%,0%);fill-opacity:1;" d="M 22.820312 12.382812 C 22.835938 13.820312 22.824219 15.257812 22.808594 16.691406 C 22.804688 16.871094 22.777344 17.050781 22.734375 17.273438 C 22.496094 17.332031 22.285156 17.347656 22.023438 17.339844 C 22.015625 16.433594 22.070312 15.546875 22.082031 14.664062 C 22.089844 14.277344 22.003906 13.890625 21.957031 13.453125 C 21.957031 13.222656 21.960938 13.046875 21.972656 12.816406 C 22.152344 12.671875 22.332031 12.582031 22.582031 12.484375 C 22.695312 12.460938 22.722656 12.429688 22.730469 12.382812 C 22.730469 12.382812 22.789062 12.378906 22.820312 12.382812 Z M 22.820312 12.382812 "/>
<path style=" stroke:none;fill-rule:nonzero;fill:rgb(2.745098%,27.058825%,53.725493%);fill-opacity:1;" d="M 22.703125 12.390625 C 22.722656 12.429688 22.695312 12.460938 22.625 12.472656 C 22.613281 12.4375 22.640625 12.414062 22.703125 12.390625 Z M 22.703125 12.390625 "/>
</g>
</svg>
