<svg xmlns="http://www.w3.org/2000/svg" xmlns:xlink="http://www.w3.org/1999/xlink" width="113px" height="35px" viewBox="0 0 113 35" version="1.1">
<g id="surface1">

<path style="fill-rule: nonzero; fill: rgb(4, 85, 191); fill-opacity: 1; opacity: 1;" d="M 3.15625 3.710938 C 3.335938 3.703125 3.515625 3.6875 3.695312 3.6875 C 12.304688 3.6875 20.910156 3.6875 29.515625 3.6875 C 30.429688 3.6875 30.464844 3.726562 30.464844 4.640625 C 30.46875 10.890625 30.464844 17.140625 30.464844 23.390625 C 30.464844 23.585938 30.464844 23.785156 30.464844 24.015625 C 30.632812 24.027344 30.753906 24.046875 30.871094 24.042969 C 31.355469 24.039062 31.5 24.308594 31.476562 24.746094 C 31.429688 25.742188 31.105469 26.632812 30.414062 27.433594 C 29.589844 27.675781 28.835938 28.074219 28.082031 28.078125 C 20.957031 28.128906 13.832031 28.109375 6.710938 28.101562 C 6.300781 28.097656 5.882812 28.023438 5.488281 27.914062 C 3.523438 27.359375 2.523438 25.953125 2.140625 24.019531 C 2.140625 24.019531 2.148438 24.035156 2.183594 24.042969 C 2.277344 24.050781 2.335938 24.050781 2.445312 24.054688 C 5.414062 24.058594 8.335938 24.0625 11.257812 24.058594 C 11.46875 24.058594 11.683594 24.015625 11.871094 24.019531 C 12.058594 24.417969 12.285156 24.777344 12.476562 25.160156 C 12.648438 25.496094 12.894531 25.582031 13.261719 25.578125 C 15.285156 25.5625 17.3125 25.558594 19.339844 25.582031 C 19.761719 25.585938 20.035156 25.476562 20.1875 25.042969 C 20.414062 24.699219 20.609375 24.378906 20.855469 24.058594 C 21.292969 24.0625 21.683594 24.0625 22.074219 24.0625 C 22.074219 24.035156 22.074219 24.003906 22.078125 23.976562 C 21.535156 23.933594 20.988281 23.890625 20.402344 23.84375 C 19.371094 23.582031 18.382812 23.324219 17.445312 23.054688 C 20.828125 23.039062 24.160156 23.039062 27.492188 23.035156 C 28.402344 23.035156 28.519531 22.902344 28.453125 21.925781 C 28.464844 16.8125 28.46875 11.746094 28.46875 6.679688 C 28.46875 5.796875 28.375 5.703125 27.511719 5.703125 C 20.261719 5.703125 13.015625 5.703125 5.769531 5.703125 C 5.589844 5.703125 5.40625 5.71875 5.179688 5.710938 C 4.238281 5.6875 4.148438 5.777344 4.144531 6.6875 C 4.140625 7.703125 4.128906 8.71875 4.09375 9.707031 C 3.480469 7.8125 3.183594 5.894531 3.148438 3.898438 C 3.152344 3.8125 3.152344 3.761719 3.15625 3.710938 Z M 3.15625 3.710938 " data-index="1"></path>
<path style="fill-rule: nonzero; fill: rgb(3, 76, 174); fill-opacity: 1; opacity: 1;" d="M 50.789062 20.453125 C 51.011719 20.464844 51.238281 20.476562 51.546875 20.472656 C 52.519531 20.3125 53.074219 19.804688 53.234375 18.914062 C 53.304688 18.507812 53.332031 18.082031 53.316406 17.664062 C 53.253906 16.136719 53.167969 14.609375 53.078125 13.082031 C 53.035156 12.351562 52.839844 12.140625 52.121094 11.980469 C 52.160156 11.855469 52.203125 11.730469 52.328125 11.601562 C 53.285156 11.59375 54.160156 11.585938 55.03125 11.582031 C 55.03125 11.582031 55.074219 11.597656 55.109375 11.628906 C 55.1875 11.640625 55.226562 11.621094 55.269531 11.601562 C 55.3125 11.601562 55.355469 11.597656 55.484375 11.597656 C 57.738281 11.601562 59.910156 11.59375 62.082031 11.605469 C 62.515625 11.609375 62.953125 11.640625 63.378906 11.714844 C 64.027344 11.832031 64.582031 12.109375 64.816406 12.84375 C 64.769531 13.246094 64.726562 13.601562 64.65625 13.980469 C 64.042969 14.613281 63.460938 15.226562 62.765625 15.953125 C 62.855469 16.019531 63.058594 16.164062 63.273438 16.34375 C 63.574219 16.761719 63.859375 17.144531 64.148438 17.515625 C 64.152344 17.503906 64.136719 17.523438 64.144531 17.5625 C 64.519531 18.425781 64.894531 19.246094 65.25 20.074219 C 65.445312 20.53125 65.617188 20.980469 66.160156 21.152344 C 66.246094 21.179688 66.273438 21.402344 66.332031 21.539062 C 66.339844 21.542969 66.332031 21.53125 66.289062 21.535156 C 66.097656 21.550781 65.949219 21.558594 65.753906 21.558594 C 65.558594 21.554688 65.40625 21.558594 65.207031 21.558594 C 64.171875 21.554688 63.191406 21.558594 62.164062 21.558594 C 61.96875 21.554688 61.816406 21.5625 61.625 21.558594 C 61.46875 21.53125 61.359375 21.515625 61.257812 21.464844 C 61.261719 21.339844 61.253906 21.25 61.28125 21.15625 C 61.359375 21.140625 61.40625 21.128906 61.492188 21.121094 C 62.070312 20.96875 61.953125 20.542969 61.804688 20.242188 C 61.394531 19.417969 60.917969 18.628906 60.460938 17.792969 C 60.273438 17.507812 60.109375 17.246094 59.902344 17.019531 C 59.832031 16.941406 59.644531 16.894531 59.550781 16.929688 C 59.429688 16.980469 59.292969 17.117188 59.265625 17.238281 C 59.226562 17.421875 59.269531 17.628906 59.265625 17.878906 C 59.253906 18.199219 59.238281 18.472656 59.253906 18.742188 C 59.292969 19.386719 59.347656 20.03125 59.394531 20.710938 C 59.539062 20.863281 59.675781 20.980469 59.855469 21.117188 C 59.9375 21.273438 59.984375 21.410156 59.988281 21.546875 C 59.792969 21.554688 59.640625 21.558594 59.441406 21.558594 C 58.226562 21.554688 57.0625 21.558594 55.859375 21.558594 C 55.699219 21.554688 55.582031 21.5625 55.425781 21.558594 C 55.019531 21.214844 55.5 21.175781 55.617188 21 C 56.082031 20.890625 56.132812 20.542969 56.136719 20.195312 C 56.160156 18.875 56.175781 17.550781 56.175781 16.226562 C 56.175781 15.195312 56.148438 14.164062 56.144531 13.105469 C 56.144531 13.019531 56.128906 12.964844 56.117188 12.863281 C 56.089844 12.324219 55.796875 11.972656 55.339844 11.976562 C 55.035156 11.980469 54.734375 12.28125 54.410156 12.492188 C 54.390625 12.984375 54.390625 13.4375 54.386719 13.941406 C 54.402344 14.40625 54.445312 14.820312 54.441406 15.238281 C 54.429688 16.675781 54.796875 18.121094 54.390625 19.585938 C 54.085938 20.3125 53.585938 20.820312 52.921875 21.21875 C 50.882812 22.042969 48.914062 22.050781 46.976562 20.945312 C 46.667969 20.46875 46.378906 20.023438 46.09375 19.53125 C 46.0625 19.179688 45.996094 18.875 46.007812 18.570312 C 46.046875 17.429688 46.113281 16.289062 46.164062 15.148438 C 46.199219 14.355469 46.238281 13.558594 46.246094 12.761719 C 46.246094 12.417969 46.121094 12.113281 45.679688 12.066406 C 45.605469 12.035156 45.550781 12.027344 45.496094 12.015625 C 45.488281 11.894531 45.484375 11.769531 45.472656 11.601562 C 47.03125 11.601562 48.5625 11.597656 50.089844 11.613281 C 50.175781 11.617188 50.257812 11.800781 50.296875 11.953125 C 49.609375 12.183594 49.433594 12.40625 49.382812 13.128906 C 49.308594 14.164062 49.226562 15.195312 49.183594 16.230469 C 49.144531 17.136719 49.078125 18.046875 49.152344 18.945312 C 49.226562 19.851562 49.878906 20.375 50.789062 20.453125 M 59.257812 13.882812 C 59.257812 14.53125 59.257812 15.179688 59.257812 15.910156 C 59.523438 15.808594 59.730469 15.730469 60.019531 15.644531 C 60.425781 15.359375 60.835938 15.078125 61.308594 14.75 C 61.414062 14.46875 61.515625 14.183594 61.644531 13.832031 C 61.554688 12.929688 61.105469 12.539062 60.21875 12.601562 C 59.445312 12.652344 59.230469 12.921875 59.257812 13.882812 Z M 59.257812 13.882812 " data-index="2"></path>

<path style=" stroke:none;fill-rule:nonzero;fill:rgb(1.176471%,29.803923%,68.235296%);fill-opacity:1;" d="M 80.246094 21.042969 C 80.382812 21.15625 80.519531 21.265625 80.65625 21.375 C 80.550781 21.433594 80.449219 21.492188 80.257812 21.550781 C 79.984375 21.554688 79.800781 21.5625 79.5625 21.558594 C 78.601562 21.554688 77.691406 21.5625 76.734375 21.558594 C 76.503906 21.554688 76.316406 21.5625 76.128906 21.566406 C 75.824219 21.53125 75.65625 21.441406 76.027344 21.121094 C 76.628906 20.886719 76.644531 20.398438 76.648438 19.960938 C 76.660156 17.902344 76.644531 15.84375 76.648438 13.734375 C 76.597656 13.273438 76.535156 12.859375 76.464844 12.40625 C 76.238281 12.183594 76.019531 11.996094 75.796875 11.8125 C 75.933594 11.742188 76.074219 11.613281 76.210938 11.609375 C 77.53125 11.59375 78.851562 11.59375 80.171875 11.609375 C 80.304688 11.613281 80.4375 11.753906 80.542969 11.898438 C 80.320312 12.125 80.125 12.289062 79.898438 12.484375 C 79.804688 13.398438 79.738281 14.285156 79.671875 15.167969 C 79.757812 15.214844 79.839844 15.261719 79.925781 15.304688 C 80.082031 15.09375 80.242188 14.878906 80.429688 14.652344 C 80.960938 14.171875 81.488281 13.730469 81.949219 13.226562 C 82.5625 12.5625 82.464844 12.21875 81.636719 11.921875 C 81.71875 11.8125 81.804688 11.617188 81.890625 11.617188 C 83.226562 11.601562 84.566406 11.609375 85.902344 11.621094 C 85.9375 11.621094 85.96875 11.6875 86.019531 11.769531 C 85.789062 11.929688 85.546875 12.046875 85.238281 12.199219 C 84.078125 12.589844 83.285156 13.382812 82.417969 14.128906 C 82.660156 14.398438 82.878906 14.632812 83.09375 14.871094 C 84.3125 16.371094 85.035156 18.128906 85.695312 19.921875 C 85.894531 20.460938 86.058594 21.046875 86.765625 21.164062 C 86.828125 21.171875 86.863281 21.320312 86.910156 21.40625 C 86.828125 21.449219 86.742188 21.496094 86.570312 21.542969 C 86.257812 21.546875 86.035156 21.554688 85.761719 21.550781 C 84.691406 21.546875 83.675781 21.554688 82.609375 21.550781 C 82.375 21.550781 82.191406 21.554688 82.003906 21.558594 C 81.953125 21.433594 81.902344 21.308594 81.917969 21.15625 C 82.136719 21.015625 82.289062 20.898438 82.464844 20.75 C 82.300781 19.113281 81.578125 17.753906 80.570312 16.480469 C 80.484375 16.308594 80.40625 16.167969 80.308594 16 C 80.066406 16.261719 79.949219 16.386719 79.792969 16.542969 C 79.753906 16.917969 79.753906 17.265625 79.742188 17.664062 C 79.734375 18.433594 79.710938 19.15625 79.742188 19.875 C 79.757812 20.316406 79.765625 20.792969 80.246094 21.042969 Z M 80.246094 21.042969 " data-index="4"></path>
<path style="fill-rule: nonzero; fill: rgb(3, 76, 174); fill-opacity: 1; opacity: 1;" d="M 34.039062 14.4375 C 34.953125 12.070312 36.917969 11.484375 39.214844 11.363281 C 40.03125 11.425781 40.796875 11.5 41.648438 11.582031 C 41.960938 11.617188 42.195312 11.640625 42.429688 11.660156 C 42.667969 11.578125 42.910156 11.492188 43.175781 11.402344 C 43.199219 11.5 43.226562 11.617188 43.265625 11.820312 C 43.394531 12.859375 43.511719 13.8125 43.628906 14.769531 C 43.566406 14.800781 43.503906 14.832031 43.4375 14.863281 C 43.28125 14.648438 43.125 14.429688 42.964844 14.175781 C 42.746094 13.894531 42.558594 13.613281 42.316406 13.402344 C 41.324219 12.539062 40.179688 12.203125 38.945312 12.730469 C 37.761719 13.238281 37.296875 14.292969 37.1875 15.574219 C 37.007812 16.898438 37.226562 18.109375 37.925781 19.199219 C 38.363281 19.878906 38.933594 20.425781 39.828125 20.507812 C 39.851562 20.523438 39.898438 20.515625 39.9375 20.527344 C 40.898438 20.558594 41.289062 20.269531 41.363281 19.347656 C 41.433594 18.523438 41.382812 17.6875 41.367188 16.859375 C 41.359375 16.289062 41.074219 15.945312 40.484375 15.855469 C 40.589844 15.71875 40.691406 15.558594 40.804688 15.546875 C 41.191406 15.507812 41.585938 15.519531 42.03125 15.523438 C 42.882812 15.527344 43.683594 15.519531 44.484375 15.515625 C 44.738281 15.523438 44.992188 15.535156 45.285156 15.59375 C 45.1875 15.757812 45.054688 15.875 44.878906 15.992188 C 44.691406 16.285156 44.421875 16.570312 44.410156 16.867188 C 44.355469 17.988281 44.359375 19.117188 44.402344 20.242188 C 44.410156 20.5 44.667969 20.746094 44.828125 21.023438 C 44.90625 21.066406 44.96875 21.085938 45.027344 21.101562 C 45.046875 21.242188 45.070312 21.382812 45.015625 21.535156 C 44.824219 21.554688 44.707031 21.558594 44.542969 21.558594 C 42.773438 21.542969 41.054688 21.578125 39.335938 21.523438 C 37.195312 21.457031 35.421875 20.679688 34.417969 18.636719 C 34.203125 18.199219 34.074219 17.722656 33.902344 17.214844 C 33.945312 16.253906 33.992188 15.347656 34.039062 14.4375 Z M 34.039062 14.4375 " data-index="5"></path>
<path style=" stroke:none;fill-rule:nonzero;fill:rgb(1.568628%,30.19608%,68.235296%);fill-opacity:1;" d="M 72.566406 11.976562 C 72.640625 11.851562 72.714844 11.621094 72.792969 11.617188 C 73.691406 11.59375 74.585938 11.605469 75.484375 11.617188 C 75.519531 11.617188 75.550781 11.683594 75.585938 11.800781 C 75.441406 11.976562 75.296875 12.0625 75.113281 12.160156 C 74.980469 12.375 74.824219 12.574219 74.8125 12.78125 C 74.785156 13.257812 74.832031 13.738281 74.84375 14.261719 C 74.847656 14.421875 74.859375 14.539062 74.863281 14.699219 C 74.886719 15.300781 74.921875 15.851562 74.945312 16.449219 C 74.941406 16.609375 74.949219 16.726562 74.945312 16.890625 C 75.066406 17.941406 75.125 18.941406 74.695312 19.933594 C 74.25 20.378906 73.832031 20.796875 73.371094 21.21875 C 71.328125 22.046875 69.363281 22.046875 67.421875 20.945312 C 66.660156 20.363281 66.441406 19.578125 66.4375 18.65625 C 66.441406 18.421875 66.4375 18.234375 66.441406 18.003906 C 66.449219 17.84375 66.445312 17.726562 66.453125 17.5625 C 66.492188 17 66.515625 16.484375 66.554688 15.933594 C 66.558594 15.847656 66.554688 15.796875 66.558594 15.703125 C 66.597656 15.175781 66.621094 14.699219 66.660156 14.171875 C 66.652344 13.566406 66.636719 13.007812 66.609375 12.414062 C 66.402344 12.261719 66.210938 12.152344 65.988281 12.011719 C 65.949219 11.859375 65.941406 11.730469 65.929688 11.601562 C 67.414062 11.601562 68.894531 11.601562 70.375 11.601562 C 70.578125 11.601562 70.847656 11.523438 70.742188 11.953125 C 70.058594 12.183594 69.878906 12.40625 69.828125 13.128906 C 69.753906 14.179688 69.671875 15.234375 69.628906 16.285156 C 69.589844 17.171875 69.527344 18.066406 69.601562 18.945312 C 69.675781 19.851562 70.324219 20.375 71.238281 20.453125 C 71.460938 20.464844 71.683594 20.472656 71.996094 20.472656 C 72.964844 20.3125 73.523438 19.804688 73.679688 18.914062 C 73.75 18.503906 73.777344 18.078125 73.761719 17.664062 C 73.699219 16.136719 73.613281 14.605469 73.523438 13.078125 C 73.484375 12.355469 73.285156 12.140625 72.566406 11.976562 Z M 72.566406 11.976562 " data-index="6"></path>
<path style=" stroke:none;fill-rule:nonzero;fill:rgb(1.568628%,30.19608%,68.235296%);fill-opacity:1;" d="M 86.894531 12.0625 C 86.808594 12 86.726562 11.933594 86.621094 11.84375 C 86.746094 11.742188 86.886719 11.613281 87.027344 11.609375 C 88.386719 11.59375 89.742188 11.601562 91.101562 11.597656 C 91.328125 11.597656 91.5625 11.578125 91.421875 11.976562 C 90.910156 12.085938 90.628906 12.359375 90.601562 12.808594 C 90.476562 14.78125 90.339844 16.757812 90.285156 18.734375 C 90.257812 19.65625 90.867188 20.25 91.792969 20.4375 C 92.121094 20.445312 92.453125 20.457031 92.871094 20.453125 C 94.03125 20.078125 94.488281 19.539062 94.476562 18.285156 C 94.460938 16.507812 94.347656 14.734375 94.230469 12.960938 C 94.183594 12.265625 93.917969 12.074219 93.21875 12 C 93.214844 11.925781 93.210938 11.847656 93.234375 11.726562 C 93.285156 11.667969 93.300781 11.648438 93.3125 11.621094 C 94.257812 11.617188 95.203125 11.609375 96.199219 11.652344 C 96.214844 11.8125 96.179688 11.921875 96.113281 12.035156 C 96.058594 12.054688 96.027344 12.074219 95.996094 12.09375 C 95.992188 12.09375 95.988281 12.089844 95.949219 12.101562 C 95.773438 12.417969 95.515625 12.730469 95.515625 13.039062 C 95.515625 14.128906 95.621094 15.21875 95.65625 16.308594 C 95.695312 17.550781 95.945312 18.816406 95.355469 20.039062 C 94.984375 20.398438 94.695312 20.832031 94.289062 21.054688 C 93.71875 21.367188 93.0625 21.527344 92.394531 21.75 C 90.949219 21.851562 89.582031 21.800781 88.300781 21.0625 C 88.007812 20.761719 87.734375 20.496094 87.453125 20.183594 C 87.355469 19.429688 87.175781 18.714844 87.191406 18.003906 C 87.222656 16.355469 87.359375 14.707031 87.4375 13.054688 C 87.457031 12.632812 87.425781 12.199219 86.894531 12.0625 Z M 86.894531 12.0625 " data-index="7"></path>
<path style=" stroke:none;fill-rule:nonzero;fill:rgb(1.960784%,30.19608%,68.235296%);fill-opacity:1;" d="M 96.140625 12.03125 C 96.179688 11.921875 96.214844 11.8125 96.25 11.667969 C 97.789062 11.621094 99.328125 11.613281 100.871094 11.597656 C 101.097656 11.597656 101.324219 11.578125 101.199219 11.96875 C 101.03125 12.070312 100.910156 12.128906 100.753906 12.210938 C 100.640625 12.472656 100.5 12.707031 100.496094 12.945312 C 100.476562 15.230469 100.464844 17.515625 100.492188 19.800781 C 100.496094 20.015625 100.777344 20.226562 100.96875 20.457031 C 101.21875 20.503906 101.433594 20.566406 101.644531 20.546875 C 103.253906 20.398438 104.273438 19.4375 104.984375 18.058594 C 105.050781 17.9375 105.109375 17.804688 105.191406 17.691406 C 105.246094 17.617188 105.339844 17.570312 105.417969 17.511719 C 105.445312 17.628906 105.476562 17.746094 105.507812 17.902344 C 105.355469 18.453125 105.199219 18.96875 105.011719 19.554688 C 104.773438 20.3125 104.570312 21 104.402344 21.566406 C 101.839844 21.566406 99.371094 21.566406 96.902344 21.566406 C 96.789062 21.515625 96.675781 21.46875 96.5625 21.417969 C 96.617188 21.324219 96.671875 21.230469 96.796875 21.105469 C 97.027344 20.796875 97.316406 20.519531 97.320312 20.234375 C 97.359375 17.8125 97.355469 15.390625 97.324219 12.972656 C 97.320312 12.6875 97.082031 12.40625 96.921875 12.09375 C 96.648438 12.085938 96.40625 12.109375 96.15625 12.105469 C 96.152344 12.082031 96.140625 12.03125 96.140625 12.03125 Z M 96.140625 12.03125 " data-index="8"></path>
<path style="fill-rule: nonzero; fill: rgb(3, 73, 136); fill-opacity: 1; opacity: 1;" d="M 2.097656 24.023438 C 2.523438 25.953125 3.523438 27.359375 5.488281 27.914062 C 5.882812 28.023438 6.300781 28.097656 6.710938 28.101562 C 13.832031 28.109375 20.957031 28.128906 28.082031 28.078125 C 28.835938 28.074219 29.589844 27.675781 30.382812 27.453125 C 29.660156 28.445312 28.632812 28.953125 27.414062 29.09375 C 27.164062 29.121094 26.910156 29.125 26.65625 29.125 C 19.75 29.128906 12.847656 29.128906 5.941406 29.125 C 3.714844 29.125 2.15625 28.078125 1.394531 26.078125 C 1.28125 25.777344 1.222656 25.449219 1.171875 25.125 C 1.03125 24.191406 1.140625 24.058594 2.097656 24.023438 Z M 2.097656 24.023438 " data-index="9"></path>

<path style="fill-rule: nonzero; fill: rgb(241, 242, 244); fill-opacity: 1; opacity: 1;" d="M 42.96875 14.214844 C 43.125 14.429688 43.28125 14.648438 43.4375 14.863281 C 43.503906 14.832031 43.566406 14.800781 43.628906 14.769531 C 43.511719 13.8125 43.394531 12.859375 43.28125 11.859375 C 43.453125 11.960938 43.714844 12.085938 43.761719 12.265625 C 43.933594 12.921875 44.019531 13.601562 44.160156 14.265625 C 44.242188 14.660156 44.367188 15.046875 44.476562 15.476562 C 43.683594 15.519531 42.882812 15.527344 42.035156 15.484375 C 42.011719 15.195312 42.144531 14.867188 42.035156 14.71875 C 41.304688 13.683594 39.414062 13.292969 38.425781 14.59375 C 37.851562 15.351562 37.804688 16.238281 37.847656 17.136719 C 37.917969 18.492188 38.285156 19.675781 39.652344 20.285156 C 39.722656 20.316406 39.757812 20.421875 39.808594 20.492188 C 38.933594 20.425781 38.363281 19.878906 37.925781 19.199219 C 37.226562 18.109375 37.007812 16.898438 37.222656 15.566406 C 37.359375 15.347656 37.425781 15.164062 37.535156 15.003906 C 37.832031 14.5625 38.070312 14.035156 38.472656 13.714844 C 39.46875 12.910156 40.632812 12.949219 41.730469 13.644531 C 42.109375 13.882812 42.554688 14.027344 42.96875 14.214844 Z M 42.96875 14.214844 " data-index="11"></path>

<path style=" stroke:none;fill-rule:nonzero;fill:rgb(93.725491%,94.117647%,94.901961%);fill-opacity:1;" d="M 50.785156 20.417969 C 49.878906 20.375 49.226562 19.851562 49.152344 18.945312 C 49.078125 18.046875 49.144531 17.136719 49.183594 16.230469 C 49.226562 15.195312 49.308594 14.164062 49.382812 13.128906 C 49.433594 12.40625 49.609375 12.183594 50.292969 11.996094 C 50.367188 12.304688 50.511719 12.664062 50.417969 12.933594 C 49.707031 14.925781 49.808594 16.988281 49.839844 19.042969 C 49.847656 19.402344 50.230469 19.765625 50.457031 20.113281 C 50.53125 20.226562 50.671875 20.292969 50.785156 20.417969 Z M 50.785156 20.417969 " data-index="13"></path>
<path style=" stroke:none;fill-rule:nonzero;fill:rgb(93.333334%,93.725491%,94.901961%);fill-opacity:1;" d="M 71.230469 20.417969 C 70.324219 20.375 69.675781 19.851562 69.601562 18.945312 C 69.527344 18.066406 69.589844 17.171875 69.628906 16.285156 C 69.671875 15.234375 69.753906 14.179688 69.828125 13.128906 C 69.878906 12.40625 70.058594 12.183594 70.738281 11.996094 C 70.800781 12.304688 70.929688 12.664062 70.824219 12.925781 C 70.417969 13.929688 70.371094 14.960938 70.359375 16.015625 C 70.351562 16.8125 70.328125 17.609375 70.25 18.398438 C 70.160156 19.285156 70.453125 19.941406 71.230469 20.417969 Z M 71.230469 20.417969 " data-index="14"></path>
<path style=" stroke:none;fill-rule:nonzero;fill:rgb(93.725491%,94.117647%,94.901961%);fill-opacity:1;" d="M 52.101562 12.023438 C 52.839844 12.140625 53.035156 12.351562 53.078125 13.082031 C 53.167969 14.609375 53.253906 16.136719 53.316406 17.664062 C 53.332031 18.082031 53.304688 18.507812 53.234375 18.914062 C 53.074219 19.804688 52.519531 20.3125 51.59375 20.457031 C 51.578125 20.390625 51.589844 20.289062 51.640625 20.265625 C 52.503906 19.839844 52.683594 19.082031 52.640625 18.214844 C 52.570312 16.824219 52.503906 15.433594 52.410156 14.042969 C 52.394531 13.78125 52.21875 13.535156 52.179688 13.269531 C 52.117188 12.875 52.113281 12.46875 52.101562 12.023438 Z M 52.101562 12.023438 " data-index="15"></path>
<path style=" stroke:none;fill-rule:nonzero;fill:rgb(93.725491%,94.117647%,94.901961%);fill-opacity:1;" d="M 91.789062 20.402344 C 90.867188 20.25 90.257812 19.65625 90.285156 18.734375 C 90.339844 16.757812 90.476562 14.78125 90.601562 12.808594 C 90.628906 12.359375 90.910156 12.085938 91.40625 12.019531 C 91.488281 12.304688 91.640625 12.632812 91.550781 12.859375 C 91.097656 13.980469 91.125 15.164062 91.03125 16.332031 C 90.988281 16.871094 90.964844 17.414062 90.921875 17.953125 C 90.84375 18.890625 90.933594 19.765625 91.789062 20.402344 Z M 91.789062 20.402344 " data-index="16"></path>

<path style="stroke: none; fill-rule: nonzero; fill: rgb(239, 240, 242); fill-opacity: 1; visibility: hidden;" d="M 72.554688 12.023438 C 73.285156 12.140625 73.484375 12.355469 73.523438 13.078125 C 73.613281 14.605469 73.699219 16.136719 73.761719 17.664062 C 73.777344 18.078125 73.75 18.503906 73.679688 18.914062 C 73.523438 19.804688 72.964844 20.3125 72.039062 20.457031 C 72.007812 20.417969 72.003906 20.359375 72.023438 20.351562 C 72.964844 19.863281 73.160156 19.035156 73.089844 18.0625 C 73 16.746094 72.960938 15.425781 72.855469 14.109375 C 72.828125 13.722656 72.621094 13.347656 72.550781 12.960938 C 72.503906 12.671875 72.546875 12.367188 72.554688 12.023438 Z M 72.554688 12.023438 " data-index="18"></path>

<path style="stroke: none; fill-rule: nonzero; fill: rgb(3, 73, 136); fill-opacity: 1; visibility: hidden;" d="M 3.121094 3.695312 C 3.152344 3.761719 3.152344 3.8125 3.105469 3.898438 C 2.464844 3.882812 2.386719 4.234375 2.386719 4.722656 C 2.394531 11.167969 2.394531 17.609375 2.394531 24.050781 C 2.335938 24.050781 2.277344 24.050781 2.175781 24.039062 C 2.136719 22.828125 2.148438 21.628906 2.148438 20.425781 C 2.148438 15.144531 2.148438 9.867188 2.148438 4.585938 C 2.148438 3.730469 2.21875 3.664062 3.121094 3.695312 Z M 3.121094 3.695312 " data-index="20"></path>
<path style=" stroke:none;fill-rule:nonzero;fill:rgb(95.294118%,95.686275%,96.470588%);fill-opacity:1;" d="M 79.929688 12.453125 C 80.125 12.289062 80.320312 12.125 80.550781 11.941406 C 80.90625 12.078125 81.230469 12.210938 81.601562 11.925781 C 82.464844 12.21875 82.5625 12.5625 81.949219 13.226562 C 81.488281 13.730469 80.960938 14.171875 80.390625 14.648438 C 79.925781 14.421875 79.921875 14.070312 79.984375 13.671875 C 80.050781 13.265625 80.316406 12.84375 79.929688 12.453125 Z M 79.929688 12.453125 " data-index="21"></path>
<path style=" stroke:none;fill-rule:nonzero;fill:rgb(97.254902%,97.254902%,97.254902%);fill-opacity:1;" d="M 44.917969 15.992188 C 45.054688 15.875 45.1875 15.757812 45.332031 15.605469 C 45.476562 14.722656 45.539062 13.894531 45.273438 13.046875 C 45.179688 12.753906 45.355469 12.378906 45.449219 12.027344 C 45.550781 12.027344 45.605469 12.035156 45.671875 12.113281 C 45.6875 12.539062 45.617188 12.910156 45.695312 13.246094 C 45.929688 14.273438 45.835938 15.265625 45.539062 16.257812 C 45.480469 16.457031 45.492188 16.683594 45.5 16.894531 C 45.511719 17.242188 45.542969 17.589844 45.570312 17.9375 C 45.457031 17.84375 45.339844 17.75 45.183594 17.617188 C 45.082031 17.835938 44.984375 18.042969 44.847656 18.210938 C 44.84375 17.445312 44.882812 16.71875 44.917969 15.992188 Z M 44.917969 15.992188 " data-index="22"></path>

<path style="stroke: none; fill-rule: nonzero; fill: rgb(238, 239, 242); fill-opacity: 1; visibility: hidden;" d="M 42.414062 11.621094 C 42.195312 11.640625 41.960938 11.617188 41.691406 11.582031 C 41.90625 11.191406 42.152344 11.40625 42.414062 11.621094 Z M 42.414062 11.621094 " data-index="24"></path>

<path style="stroke: none; fill-rule: nonzero; fill: rgb(251, 251, 251); fill-opacity: 1; visibility: hidden;" d="M 55.230469 11.597656 C 55.226562 11.621094 55.1875 11.640625 55.132812 11.628906 C 55.144531 11.597656 55.171875 11.597656 55.230469 11.597656 Z M 55.230469 11.597656 " data-index="26"></path>
<path style="fill-rule: nonzero; fill: rgb(252, 253, 254); fill-opacity: 1; opacity: 1;" d="M 5.226562 5.722656 C 5.40625 5.71875 5.589844 5.703125 5.769531 5.703125 C 13.015625 5.703125 20.261719 5.703125 27.511719 5.703125 C 28.375 5.703125 28.46875 5.796875 28.46875 6.679688 C 28.46875 11.746094 28.464844 16.8125 28.40625 21.929688 C 27.324219 21.980469 26.304688 21.988281 25.28125 21.980469 C 25.117188 21.976562 24.949219 21.902344 24.800781 21.820312 C 24.84375 21.519531 24.875 21.257812 24.910156 20.949219 C 24.917969 20.097656 24.917969 19.296875 24.917969 18.496094 C 24.917969 17.472656 24.90625 17.460938 23.910156 17.339844 C 23.910156 15.617188 23.90625 13.941406 23.917969 12.269531 C 23.917969 12.085938 23.964844 11.875 24.066406 11.730469 C 24.386719 11.269531 24.332031 11.003906 23.789062 10.78125 C 21.453125 9.8125 19.113281 8.839844 16.765625 7.902344 C 16.5 7.796875 16.117188 7.800781 15.851562 7.90625 C 13.5 8.84375 11.160156 9.8125 8.828125 10.792969 C 8.636719 10.875 8.398438 11.132812 8.394531 11.3125 C 8.394531 11.488281 8.636719 11.730469 8.828125 11.828125 C 9.457031 12.144531 10.109375 12.40625 10.746094 12.738281 C 10.75 12.964844 10.761719 13.148438 10.757812 13.382812 C 10.746094 14.527344 10.726562 15.617188 10.753906 16.707031 C 10.761719 16.945312 10.882812 17.246094 11.054688 17.410156 C 13.898438 20.136719 18.699219 20.136719 21.5625 17.414062 C 21.714844 17.269531 21.855469 17.023438 21.859375 16.820312 C 21.878906 15.660156 21.855469 14.496094 21.855469 13.289062 C 21.867188 13.058594 21.863281 12.875 21.890625 12.664062 C 22.226562 12.511719 22.53125 12.382812 22.847656 12.304688 C 22.867188 14 22.875 15.644531 22.875 17.308594 C 22.859375 17.332031 22.847656 17.382812 22.835938 17.394531 C 22.824219 17.40625 22.835938 17.4375 22.785156 17.429688 C 21.964844 17.425781 21.859375 17.527344 21.859375 18.292969 C 21.859375 19.273438 21.84375 20.253906 21.871094 21.234375 C 21.878906 21.480469 22.035156 21.722656 22.070312 21.972656 C 21.257812 21.945312 20.503906 21.921875 19.75 21.878906 C 17.789062 21.769531 15.957031 21.171875 14.214844 20.316406 C 12.035156 19.242188 10.183594 17.738281 8.679688 15.796875 C 6.382812 12.832031 5.175781 9.5 5.226562 5.722656 Z M 5.226562 5.722656 " data-index="27"></path>
<path style="stroke: none; fill-rule: nonzero; fill: rgb(218, 230, 237); fill-opacity: 1; opacity: 1;" d="M 24.785156 21.859375 C 24.949219 21.902344 25.117188 21.976562 25.28125 21.980469 C 26.304688 21.988281 27.324219 21.980469 28.394531 21.976562 C 28.519531 22.902344 28.402344 23.035156 27.492188 23.035156 C 24.160156 23.039062 20.828125 23.039062 17.394531 23.042969 C 17.0625 23.039062 16.824219 23.035156 16.589844 23.035156 C 12.769531 23.035156 8.949219 23.035156 5.128906 23.035156 C 4.234375 23.035156 4.148438 22.945312 4.144531 22.027344 C 4.144531 19.296875 4.148438 16.5625 4.144531 13.832031 C 4.144531 12.46875 4.128906 11.101562 4.121094 9.738281 C 4.128906 8.71875 4.140625 7.703125 4.144531 6.6875 C 4.148438 5.777344 4.238281 5.6875 5.179688 5.710938 C 5.175781 9.5 6.382812 12.832031 8.679688 15.796875 C 10.183594 17.738281 12.035156 19.242188 14.214844 20.316406 C 15.957031 21.171875 17.789062 21.769531 19.75 21.878906 C 20.503906 21.921875 21.257812 21.945312 22.117188 21.976562 C 23.074219 21.9375 23.929688 21.898438 24.785156 21.859375 Z M 24.785156 21.859375 " data-index="28"></path>
<path style="stroke: none; fill-rule: nonzero; fill: rgb(0, 71, 135); fill-opacity: 1; opacity: 1;" d="M 4.09375 9.707031 C 4.128906 11.101562 4.144531 12.46875 4.144531 13.832031 C 4.148438 16.5625 4.144531 19.296875 4.144531 22.027344 C 4.148438 22.945312 4.234375 23.035156 5.128906 23.035156 C 8.949219 23.035156 12.769531 23.035156 16.589844 23.035156 C 16.824219 23.035156 17.0625 23.039062 17.347656 23.054688 C 18.382812 23.324219 19.371094 23.582031 20.402344 23.875 C 20.445312 23.945312 20.445312 23.984375 20.40625 24.03125 C 17.820312 24.050781 15.269531 24.058594 12.6875 24.050781 C 12.398438 24.019531 12.148438 24.007812 11.898438 23.992188 C 11.683594 24.015625 11.46875 24.058594 11.257812 24.058594 C 8.335938 24.0625 5.414062 24.058594 2.445312 24.054688 C 2.394531 17.609375 2.394531 11.167969 2.386719 4.722656 C 2.386719 4.234375 2.464844 3.882812 3.105469 3.9375 C 3.183594 5.894531 3.480469 7.8125 4.09375 9.707031 Z M 4.09375 9.707031 " data-index="29"></path>
<path style="stroke: none; fill-rule: nonzero; fill: rgb(253, 187, 0); fill-opacity: 1; opacity: 1;" d="M 12.722656 24.0625 C 15.269531 24.058594 17.820312 24.050781 20.449219 24.042969 C 20.625 24.046875 20.71875 24.050781 20.808594 24.058594 C 20.609375 24.378906 20.414062 24.699219 20.132812 25.039062 C 18.199219 25.054688 16.34375 25.070312 14.488281 25.039062 C 13.757812 25.027344 13.070312 24.832031 12.722656 24.0625 Z M 12.722656 24.0625 " data-index="30"></path>
<path style="stroke: none; fill-rule: nonzero; fill: rgb(224, 165, 14); fill-opacity: 1; opacity: 1;" d="M 12.6875 24.050781 C 13.070312 24.832031 13.757812 25.027344 14.488281 25.039062 C 16.34375 25.070312 18.199219 25.054688 20.105469 25.0625 C 20.035156 25.476562 19.761719 25.585938 19.339844 25.582031 C 17.3125 25.558594 15.285156 25.5625 13.261719 25.578125 C 12.894531 25.582031 12.648438 25.496094 12.476562 25.160156 C 12.285156 24.777344 12.058594 24.417969 11.871094 24.019531 C 12.148438 24.007812 12.398438 24.019531 12.6875 24.050781 Z M 12.6875 24.050781 " data-index="31"></path>
<path style=" stroke:none;fill-rule:nonzero;fill:rgb(1.176471%,28.627452%,53.333336%);fill-opacity:1;" d="M 20.855469 24.058594 C 20.71875 24.050781 20.625 24.046875 20.488281 24.03125 C 20.445312 23.984375 20.445312 23.945312 20.445312 23.878906 C 20.988281 23.890625 21.535156 23.933594 22.078125 23.976562 C 22.074219 24.003906 22.074219 24.035156 22.074219 24.0625 C 21.683594 24.0625 21.292969 24.0625 20.855469 24.058594 Z M 20.855469 24.058594 " data-index="32"></path>

<path style="stroke: none; fill-rule: nonzero; fill: rgb(243, 244, 244); fill-opacity: 1; visibility: hidden;" d="M 64.144531 17.5625 C 64.277344 17.636719 64.46875 17.71875 64.554688 17.863281 C 64.917969 18.457031 65.25 19.074219 65.679688 19.832031 C 65.792969 19.515625 65.890625 19.363281 65.898438 19.203125 C 65.949219 18.410156 65.976562 17.613281 66.015625 16.816406 C 66.046875 16.21875 66.132812 15.625 66.113281 15.03125 C 66.09375 14.347656 65.972656 13.667969 65.929688 12.984375 C 65.910156 12.699219 65.976562 12.414062 66.011719 12.082031 C 66.210938 12.152344 66.402344 12.261719 66.566406 12.429688 C 66.265625 12.867188 66.328125 13.863281 66.648438 14.21875 C 66.621094 14.699219 66.597656 15.175781 66.527344 15.707031 C 66.453125 15.792969 66.421875 15.828125 66.386719 15.863281 C 66.4375 15.898438 66.492188 15.933594 66.542969 15.96875 C 66.515625 16.484375 66.492188 17 66.417969 17.570312 C 66.390625 17.765625 66.410156 17.90625 66.433594 18.046875 C 66.4375 18.234375 66.441406 18.421875 66.398438 18.667969 C 66.042969 19.496094 66.566406 20.964844 67.316406 21.550781 C 68.058594 22.136719 68.910156 22.398438 69.84375 22.558594 C 69.957031 22.566406 70.054688 22.550781 70.199219 22.53125 C 70.539062 22.53125 70.835938 22.53125 71.128906 22.53125 C 70.78125 23.082031 70.203125 22.851562 69.777344 22.824219 C 69.140625 22.78125 68.503906 22.539062 67.894531 22.308594 C 67.570312 22.1875 67.316406 21.886719 67.007812 21.707031 C 66.835938 21.609375 66.617188 21.59375 66.375 21.539062 C 66.273438 21.402344 66.246094 21.179688 66.160156 21.152344 C 65.617188 20.980469 65.445312 20.53125 65.25 20.074219 C 64.894531 19.246094 64.519531 18.425781 64.144531 17.5625 Z M 64.144531 17.5625 " data-index="34"></path>

<path style=" stroke:none;fill-rule:nonzero;fill:rgb(91.37255%,92.156863%,92.941177%);fill-opacity:1;" d="M 59.597656 19.6875 C 59.597656 19.769531 59.597656 19.851562 59.570312 20 C 59.492188 20.265625 59.445312 20.46875 59.394531 20.671875 C 59.347656 20.03125 59.292969 19.386719 59.253906 18.742188 C 59.238281 18.472656 59.253906 18.199219 59.308594 17.875 C 59.730469 17.820312 60.101562 17.824219 60.46875 17.828125 C 60.917969 18.628906 61.394531 19.417969 61.804688 20.242188 C 61.953125 20.542969 62.070312 20.96875 61.492188 21.074219 C 61.382812 20.136719 60.945312 19.417969 60.371094 18.777344 C 60.152344 18.535156 59.816406 18.445312 59.65625 18.78125 C 59.535156 19.03125 59.609375 19.382812 59.597656 19.6875 Z M 59.597656 19.6875 " data-index="36"></path>
<path style=" stroke:none;fill-rule:nonzero;fill:rgb(97.254902%,97.254902%,97.254902%);fill-opacity:1;" d="M 61.242188 14.792969 C 60.835938 15.078125 60.425781 15.359375 59.945312 15.625 C 59.785156 15.207031 59.617188 14.8125 59.625 14.417969 C 59.632812 14.03125 59.871094 13.695312 60.335938 13.675781 C 60.777344 13.65625 61.042969 13.875 61.125 14.320312 C 61.152344 14.480469 61.203125 14.632812 61.242188 14.792969 Z M 61.242188 14.792969 " data-index="37"></path>
<path style="fill-rule: nonzero; fill: rgb(222, 225, 228); fill-opacity: 1; opacity: 1;" d="M 52.921875 21.21875 C 52.4375 21.480469 51.9375 21.828125 51.386719 22 C 50.085938 22.398438 48.796875 22.261719 47.582031 21.644531 C 47.347656 21.523438 47.1875 21.257812 46.992188 21.015625 C 48.914062 22.050781 50.882812 22.042969 52.921875 21.21875 Z M 52.921875 21.21875 " data-index="38"></path>
<path style=" stroke:none;fill-rule:nonzero;fill:rgb(95.294118%,95.686275%,95.686275%);fill-opacity:1;" d="M 64.816406 12.84375 C 65.234375 13.023438 65.421875 13.59375 65.207031 14.265625 C 65.078125 14.675781 64.914062 15.125 64.621094 15.414062 C 64.007812 16.015625 63.769531 16.636719 64.148438 17.484375 C 63.859375 17.144531 63.574219 16.761719 63.3125 16.332031 C 63.746094 15.769531 64.191406 15.277344 64.558594 14.734375 C 64.691406 14.535156 64.648438 14.21875 64.6875 13.953125 C 64.726562 13.601562 64.769531 13.246094 64.816406 12.84375 Z M 64.816406 12.84375 " data-index="39"></path>
<path style=" stroke:none;fill-rule:nonzero;fill:rgb(90.980393%,91.37255%,91.37255%);fill-opacity:1;" d="M 55.902344 21.566406 C 57.0625 21.558594 58.226562 21.554688 59.4375 21.59375 C 59.269531 22.058594 58.925781 22.21875 58.46875 22.207031 C 57.929688 22.191406 57.390625 22.203125 56.847656 22.203125 C 56.390625 22.203125 56.050781 22.027344 55.902344 21.566406 Z M 55.902344 21.566406 " data-index="40"></path>
<path style=" stroke:none;fill-rule:nonzero;fill:rgb(93.333334%,93.725491%,94.117647%);fill-opacity:1;" d="M 61.277344 14.769531 C 61.203125 14.632812 61.152344 14.480469 61.125 14.320312 C 61.042969 13.875 60.777344 13.65625 60.335938 13.675781 C 59.871094 13.695312 59.632812 14.03125 59.625 14.417969 C 59.617188 14.8125 59.785156 15.207031 59.90625 15.625 C 59.730469 15.730469 59.523438 15.808594 59.257812 15.910156 C 59.257812 15.179688 59.257812 14.53125 59.304688 13.828125 C 59.414062 13.734375 59.488281 13.710938 59.53125 13.660156 C 60.121094 12.972656 60.550781 12.953125 61.195312 13.574219 C 61.320312 13.699219 61.472656 13.792969 61.617188 13.902344 C 61.515625 14.183594 61.414062 14.46875 61.277344 14.769531 Z M 61.277344 14.769531 " data-index="41"></path>

<path style="stroke: none; fill-rule: nonzero; fill: rgb(243, 244, 244); fill-opacity: 1; visibility: hidden;" d="M 65.253906 22.53125 C 64.261719 22.53125 63.265625 22.539062 62.273438 22.527344 C 61.675781 22.523438 61.296875 22.164062 61.242188 21.542969 C 61.359375 21.515625 61.46875 21.53125 61.628906 21.59375 C 61.941406 21.828125 62.191406 22.148438 62.480469 22.183594 C 63.242188 22.289062 64.023438 22.320312 64.792969 22.28125 C 65.214844 22.257812 65.726562 22.171875 65.800781 21.566406 C 65.949219 21.558594 66.097656 21.550781 66.289062 21.535156 C 66.238281 21.996094 66.046875 22.382812 65.496094 22.503906 C 65.378906 22.5 65.316406 22.515625 65.253906 22.53125 Z M 65.253906 22.53125 " data-index="43"></path>
<path style=" stroke:none;fill-rule:nonzero;fill:rgb(87.058824%,88.235295%,89.411765%);fill-opacity:1;" d="M 61.628906 13.867188 C 61.472656 13.792969 61.320312 13.699219 61.195312 13.574219 C 60.550781 12.953125 60.121094 12.972656 59.53125 13.660156 C 59.488281 13.710938 59.414062 13.734375 59.3125 13.777344 C 59.230469 12.921875 59.445312 12.652344 60.21875 12.601562 C 61.105469 12.539062 61.554688 12.929688 61.628906 13.867188 Z M 61.628906 13.867188 " data-index="44"></path>
<path style=" stroke:none;fill-rule:nonzero;fill:rgb(92.156863%,92.54902%,92.941177%);fill-opacity:1;" d="M 65.753906 21.558594 C 65.726562 22.171875 65.214844 22.257812 64.792969 22.28125 C 64.023438 22.320312 63.242188 22.289062 62.480469 22.183594 C 62.191406 22.148438 61.941406 21.828125 61.671875 21.601562 C 61.816406 21.5625 61.96875 21.554688 62.171875 21.597656 C 62.410156 21.757812 62.597656 21.953125 62.792969 21.96875 C 63.386719 22.011719 63.988281 22.019531 64.578125 21.964844 C 64.816406 21.941406 65.03125 21.703125 65.257812 21.566406 C 65.40625 21.558594 65.558594 21.554688 65.753906 21.558594 Z M 65.753906 21.558594 " data-index="45"></path>
<path style=" stroke:none;fill-rule:nonzero;fill:rgb(88.235295%,89.019608%,90.588236%);fill-opacity:1;" d="M 64.65625 13.980469 C 64.648438 14.21875 64.691406 14.535156 64.558594 14.734375 C 64.191406 15.277344 63.746094 15.769531 63.296875 16.296875 C 63.058594 16.164062 62.855469 16.019531 62.765625 15.953125 C 63.460938 15.226562 64.042969 14.613281 64.65625 13.980469 Z M 64.65625 13.980469 " data-index="46"></path>
<path style=" stroke:none;fill-rule:nonzero;fill:rgb(89.803922%,89.803922%,89.803922%);fill-opacity:1;" d="M 65.207031 21.558594 C 65.03125 21.703125 64.816406 21.941406 64.578125 21.964844 C 63.988281 22.019531 63.386719 22.011719 62.792969 21.96875 C 62.597656 21.953125 62.410156 21.757812 62.214844 21.605469 C 63.191406 21.558594 64.171875 21.554688 65.207031 21.558594 Z M 65.207031 21.558594 " data-index="47"></path>
<path style=" stroke:none;fill-rule:nonzero;fill:rgb(96.078432%,96.470588%,96.862745%);fill-opacity:1;" d="M 59.632812 19.667969 C 59.609375 19.382812 59.535156 19.03125 59.65625 18.78125 C 59.816406 18.445312 60.152344 18.535156 60.371094 18.777344 C 60.945312 19.417969 61.382812 20.136719 61.449219 21.070312 C 61.40625 21.128906 61.359375 21.140625 61.28125 21.15625 C 61 20.554688 60.796875 19.925781 60.484375 19.355469 C 60.273438 18.96875 60.015625 19.078125 59.632812 19.667969 Z M 59.632812 19.667969 " data-index="48"></path>
<path style=" stroke:none;fill-rule:nonzero;fill:rgb(87.058824%,88.235295%,89.411765%);fill-opacity:1;" d="M 60.460938 17.792969 C 60.101562 17.824219 59.730469 17.820312 59.320312 17.824219 C 59.269531 17.628906 59.226562 17.421875 59.265625 17.238281 C 59.292969 17.117188 59.429688 16.980469 59.550781 16.929688 C 59.644531 16.894531 59.832031 16.941406 59.902344 17.019531 C 60.109375 17.246094 60.273438 17.507812 60.460938 17.792969 Z M 60.460938 17.792969 " data-index="49"></path>
<path style=" stroke:none;fill-rule:nonzero;fill:rgb(91.37255%,92.156863%,92.941177%);fill-opacity:1;" d="M 54.410156 12.492188 C 54.953125 12.910156 54.59375 13.394531 54.433594 13.882812 C 54.390625 13.4375 54.390625 12.984375 54.410156 12.492188 Z M 54.410156 12.492188 " data-index="50"></path>
<path style=" stroke:none;fill-rule:nonzero;fill:rgb(96.078432%,96.470588%,96.862745%);fill-opacity:1;" d="M 59.394531 20.710938 C 59.445312 20.46875 59.492188 20.265625 59.570312 20.039062 C 59.671875 20.347656 59.746094 20.675781 59.816406 21.054688 C 59.675781 20.980469 59.539062 20.863281 59.394531 20.710938 Z M 59.394531 20.710938 " data-index="51"></path>
<path style=" stroke:none;fill-rule:nonzero;fill:rgb(81.960785%,85.490197%,90.588236%);fill-opacity:1;" d="M 56.144531 13.105469 C 56.113281 13.066406 56.09375 13 56.09375 12.921875 C 56.128906 12.964844 56.144531 13.019531 56.144531 13.105469 Z M 56.144531 13.105469 " data-index="52"></path>
<path style=" stroke:none;fill-rule:nonzero;fill:rgb(93.333334%,93.725491%,94.117647%);fill-opacity:1;" d="M 95.386719 20.015625 C 95.945312 18.816406 95.695312 17.550781 95.65625 16.308594 C 95.621094 15.21875 95.515625 14.128906 95.515625 13.039062 C 95.515625 12.730469 95.773438 12.417969 95.964844 12.140625 C 96.199219 12.4375 96.253906 12.695312 96.0625 13 C 95.964844 13.152344 95.96875 13.371094 95.925781 13.5625 C 95.925781 13.894531 95.925781 14.226562 95.894531 14.628906 C 95.886719 14.832031 95.90625 14.964844 95.925781 15.09375 C 95.96875 16.480469 96.085938 17.875 96.03125 19.257812 C 95.96875 20.820312 95.070312 21.828125 93.605469 22.328125 C 91.804688 22.9375 90.035156 22.917969 88.335938 21.988281 C 87.246094 21.394531 86.792969 20.371094 86.804688 19.179688 C 86.820312 17.605469 86.945312 16.03125 87 14.453125 C 87.011719 14.042969 86.925781 13.625 86.902344 13.210938 C 86.886719 12.859375 86.898438 12.503906 86.894531 12.105469 C 87.425781 12.199219 87.457031 12.632812 87.4375 13.054688 C 87.359375 14.707031 87.222656 16.355469 87.191406 18.003906 C 87.175781 18.714844 87.355469 19.429688 87.421875 20.203125 C 87.582031 21.179688 88.257812 21.648438 89.027344 21.976562 C 90.144531 22.449219 91.339844 22.5 92.515625 22.28125 C 93.625 22.078125 94.664062 21.640625 95.285156 20.585938 C 95.375 20.429688 95.355469 20.207031 95.386719 20.015625 Z M 95.386719 20.015625 " data-index="53"></path>
<path style=" stroke:none;fill-rule:nonzero;fill:rgb(99.607843%,99.607843%,99.607843%);fill-opacity:1;" d="M 84.03125 14.421875 C 84.746094 13.9375 85.433594 13.476562 86.269531 12.921875 C 86.386719 13.34375 86.554688 13.683594 86.558594 14.023438 C 86.5625 15.039062 86.503906 16.050781 86.460938 17.066406 C 86.4375 17.644531 86.394531 18.222656 86.347656 18.796875 C 86.335938 18.90625 86.257812 19.007812 86.15625 19.234375 C 85.972656 18.878906 85.851562 18.628906 85.714844 18.386719 C 85.207031 17.449219 84.691406 16.515625 84.179688 15.582031 C 83.984375 15.226562 83.652344 14.894531 84.03125 14.421875 Z M 84.03125 14.421875 " data-index="54"></path>
<path style=" stroke:none;fill-rule:nonzero;fill:rgb(90.980393%,91.37255%,91.37255%);fill-opacity:1;" d="M 96.90625 21.601562 C 99.371094 21.566406 101.839844 21.566406 104.402344 21.566406 C 104.570312 21 104.773438 20.3125 105.003906 19.597656 C 105.570312 20.695312 104.632812 22.308594 103.433594 22.3125 C 101.625 22.316406 99.820312 22.3125 98.015625 22.3125 C 97.515625 22.3125 97.074219 22.203125 96.90625 21.601562 Z M 96.90625 21.601562 " data-index="55"></path>

<path style=" stroke:none;fill-rule:nonzero;fill:rgb(91.37255%,92.156863%,92.941177%);fill-opacity:1;" d="M 71.164062 22.53125 C 70.835938 22.53125 70.539062 22.53125 70.179688 22.503906 C 70.015625 22.496094 69.917969 22.511719 69.824219 22.53125 C 68.910156 22.398438 68.058594 22.136719 67.316406 21.550781 C 66.566406 20.964844 66.042969 19.496094 66.390625 18.714844 C 66.441406 19.578125 66.660156 20.363281 67.417969 20.988281 C 67.753906 21.324219 68.03125 21.6875 68.394531 21.835938 C 69.488281 22.285156 70.652344 22.351562 71.789062 22.054688 C 72.371094 21.902344 73.046875 21.832031 73.410156 21.214844 C 73.832031 20.796875 74.25 20.378906 74.722656 19.953125 C 74.792969 20.003906 74.808594 20.066406 74.824219 20.167969 C 74.753906 20.4375 74.679688 20.664062 74.574219 20.894531 C 74.488281 20.96875 74.441406 21.039062 74.390625 21.109375 C 74.304688 21.210938 74.214844 21.308594 74.058594 21.429688 C 73.945312 21.515625 73.894531 21.585938 73.847656 21.65625 C 73.847656 21.65625 73.847656 21.65625 73.808594 21.65625 C 73.6875 21.730469 73.601562 21.800781 73.480469 21.878906 C 73.25 21.953125 73.058594 22.023438 72.832031 22.097656 C 72.636719 22.171875 72.480469 22.242188 72.289062 22.3125 C 72.203125 22.3125 72.15625 22.3125 72.070312 22.316406 C 71.988281 22.390625 71.9375 22.460938 71.890625 22.53125 C 71.890625 22.53125 71.835938 22.53125 71.765625 22.53125 C 71.578125 22.53125 71.460938 22.53125 71.34375 22.53125 C 71.296875 22.53125 71.25 22.53125 71.164062 22.53125 Z M 71.164062 22.53125 " data-index="57"></path>

<path style="stroke: none; fill-rule: nonzero; fill: rgb(238, 239, 240); fill-opacity: 1; visibility: hidden;" d="M 96.949219 12.121094 C 97.082031 12.40625 97.320312 12.6875 97.324219 12.972656 C 97.355469 15.390625 97.359375 17.8125 97.320312 20.234375 C 97.316406 20.519531 97.027344 20.796875 96.832031 21.082031 C 96.792969 20.972656 96.792969 20.863281 96.832031 20.707031 C 96.917969 20.554688 96.964844 20.449219 97.011719 20.34375 C 97.011719 20.15625 97.011719 19.96875 97.042969 19.703125 C 97.089844 18.027344 97.101562 16.433594 97.109375 14.839844 C 97.109375 14.777344 97.046875 14.71875 97.011719 14.65625 C 97.011719 14.433594 97.011719 14.210938 97.011719 13.894531 C 96.925781 13.511719 96.785156 13.226562 96.773438 12.929688 C 96.761719 12.664062 96.886719 12.390625 96.949219 12.121094 Z M 96.949219 12.121094 " data-index="59"></path>
<path style=" stroke:none;fill-rule:nonzero;fill:rgb(90.588236%,90.980393%,91.37255%);fill-opacity:1;" d="M 83.109375 14.835938 C 82.878906 14.632812 82.660156 14.398438 82.417969 14.128906 C 83.285156 13.382812 84.078125 12.589844 85.214844 12.230469 C 85.117188 12.511719 85.035156 12.851562 84.824219 13.066406 C 84.425781 13.472656 83.941406 13.792969 83.523438 14.183594 C 83.347656 14.34375 83.253906 14.59375 83.109375 14.835938 Z M 83.109375 14.835938 " data-index="60"></path>
<path style=" stroke:none;fill-rule:nonzero;fill:rgb(93.333334%,93.725491%,94.117647%);fill-opacity:1;" d="M 44.878906 15.992188 C 44.882812 16.71875 44.84375 17.445312 44.808594 18.21875 C 44.808594 18.886719 44.808594 19.511719 44.808594 20.230469 C 44.808594 20.550781 44.808594 20.773438 44.808594 20.996094 C 44.667969 20.746094 44.410156 20.5 44.402344 20.242188 C 44.359375 19.117188 44.355469 17.988281 44.410156 16.867188 C 44.421875 16.570312 44.691406 16.285156 44.878906 15.992188 Z M 44.878906 15.992188 " data-index="61"></path>
<path style=" stroke:none;fill-rule:nonzero;fill:rgb(93.333334%,93.725491%,94.117647%);fill-opacity:1;" d="M 79.613281 21.566406 C 79.800781 21.5625 79.984375 21.554688 80.21875 21.558594 C 80.316406 21.996094 80.0625 22.265625 79.699219 22.285156 C 78.757812 22.339844 77.808594 22.367188 76.871094 22.292969 C 76.609375 22.273438 76.378906 21.871094 76.128906 21.605469 C 76.316406 21.5625 76.503906 21.554688 76.742188 21.597656 C 76.976562 21.757812 77.15625 21.953125 77.347656 21.96875 C 77.921875 22.011719 78.5 22.019531 79.074219 21.964844 C 79.261719 21.945312 79.433594 21.707031 79.613281 21.566406 Z M 79.613281 21.566406 " data-index="62"></path>
<path style=" stroke:none;fill-rule:nonzero;fill:rgb(93.725491%,94.117647%,94.117647%);fill-opacity:1;" d="M 82.007812 21.597656 C 82.191406 21.554688 82.375 21.550781 82.613281 21.589844 C 82.835938 21.753906 82.996094 21.957031 83.171875 21.964844 C 83.855469 22.007812 84.546875 22.019531 85.230469 21.972656 C 85.433594 21.957031 85.617188 21.703125 85.8125 21.558594 C 86.035156 21.554688 86.257812 21.546875 86.527344 21.550781 C 86.449219 22.203125 85.972656 22.390625 85.417969 22.414062 C 84.660156 22.441406 83.898438 22.453125 83.140625 22.410156 C 82.644531 22.378906 82.171875 22.210938 82.007812 21.597656 Z M 82.007812 21.597656 " data-index="63"></path>

<path style="stroke: none; fill-rule: nonzero; fill: rgb(243, 244, 246); fill-opacity: 1; visibility: hidden;" d="M 96.921875 12.09375 C 96.886719 12.390625 96.761719 12.664062 96.773438 12.929688 C 96.785156 13.226562 96.925781 13.511719 97.011719 13.847656 C 96.9375 13.828125 96.835938 13.78125 96.796875 13.703125 C 96.492188 13.113281 96.472656 13.109375 95.960938 13.558594 C 95.96875 13.371094 95.964844 13.152344 96.0625 13 C 96.253906 12.695312 96.199219 12.4375 96.003906 12.132812 C 95.988281 12.089844 95.992188 12.09375 96.035156 12.109375 C 96.105469 12.125 96.136719 12.128906 96.164062 12.132812 C 96.40625 12.109375 96.648438 12.085938 96.921875 12.09375 Z M 96.921875 12.09375 " data-index="65"></path>
<path style=" stroke:none;fill-rule:nonzero;fill:rgb(93.333334%,93.725491%,94.117647%);fill-opacity:1;" d="M 74.824219 20.125 C 74.808594 20.066406 74.792969 20.003906 74.75 19.925781 C 75.125 18.941406 75.066406 17.941406 74.980469 16.898438 C 75.140625 17.035156 75.253906 17.210938 75.367188 17.390625 C 75.371094 17.472656 75.371094 17.554688 75.335938 17.710938 C 75.289062 18.210938 75.304688 18.640625 75.253906 19.066406 C 75.207031 19.445312 75.292969 19.90625 74.824219 20.125 Z M 74.824219 20.125 " data-index="66"></path>
<path style=" stroke:none;fill-rule:nonzero;fill:rgb(95.294118%,95.686275%,95.686275%);fill-opacity:1;" d="M 74.824219 20.167969 C 75.292969 19.90625 75.207031 19.445312 75.253906 19.066406 C 75.304688 18.640625 75.289062 18.210938 75.335938 17.75 C 75.601562 18.941406 75.527344 20.097656 74.644531 21.066406 C 74.609375 20.988281 74.609375 20.9375 74.609375 20.890625 C 74.679688 20.664062 74.753906 20.4375 74.824219 20.167969 Z M 74.824219 20.167969 " data-index="67"></path>
<path style=" stroke:none;fill-rule:nonzero;fill:rgb(95.294118%,95.686275%,95.686275%);fill-opacity:1;" d="M 75.398438 17.363281 C 75.253906 17.210938 75.140625 17.035156 74.988281 16.851562 C 74.949219 16.726562 74.941406 16.609375 74.984375 16.4375 C 75.109375 16.101562 75.183594 15.816406 75.261719 15.53125 C 75.316406 16.132812 75.375 16.734375 75.398438 17.363281 Z M 75.398438 17.363281 " data-index="68"></path>
<path style=" stroke:none;fill-rule:nonzero;fill:rgb(97.254902%,97.254902%,97.254902%);fill-opacity:1;" d="M 54.964844 19.347656 C 54.921875 18.628906 54.921875 17.894531 54.921875 17.113281 C 54.972656 17.082031 55.066406 17.101562 55.066406 17.121094 C 55.054688 17.859375 55.03125 18.601562 54.964844 19.347656 Z M 54.964844 19.347656 " data-index="69"></path>

<path style="stroke: none; fill-rule: nonzero; fill: rgb(248, 248, 248); fill-opacity: 1; visibility: hidden;" d="M 54.851562 13.664062 C 54.917969 13.449219 55.023438 13.222656 55.128906 13 C 55.191406 13 55.25 12.996094 55.3125 12.996094 C 55.433594 13.195312 55.554688 13.394531 55.679688 13.632812 C 55.421875 13.535156 55.160156 13.335938 54.851562 13.664062 Z M 54.851562 13.664062 " data-index="71"></path>

<path style="fill-rule: nonzero; fill: rgb(248, 248, 248); fill-opacity: 1; opacity: 1;" d="M 44.828125 21.023438 C 44.808594 20.773438 44.808594 20.550781 44.808594 20.28125 C 44.882812 20.492188 44.953125 20.75 45.027344 21.054688 C 44.96875 21.085938 44.90625 21.066406 44.828125 21.023438 Z M 44.828125 21.023438 " data-index="73"></path>
<path style=" stroke:none;fill-rule:nonzero;fill:rgb(97.254902%,97.254902%,97.254902%);fill-opacity:1;" d="M 54.953125 16.488281 C 54.886719 16.289062 54.851562 16.066406 54.816406 15.796875 C 54.871094 15.984375 54.925781 16.222656 54.953125 16.488281 Z M 54.953125 16.488281 " data-index="74"></path>
<path style=" stroke:none;fill-rule:nonzero;fill:rgb(97.254902%,97.254902%,97.254902%);fill-opacity:1;" d="M 55.65625 13.917969 C 55.703125 14.089844 55.722656 14.292969 55.714844 14.519531 C 55.664062 14.347656 55.644531 14.144531 55.65625 13.917969 Z M 55.65625 13.917969 " data-index="75"></path>
<path style=" stroke:none;fill-rule:nonzero;fill:rgb(97.254902%,97.254902%,97.254902%);fill-opacity:1;" d="M 45.539062 19.058594 C 45.605469 19.226562 45.636719 19.421875 45.675781 19.652344 C 45.621094 19.488281 45.566406 19.285156 45.539062 19.058594 Z M 45.539062 19.058594 " data-index="76"></path>

<path style=" stroke:none;fill-rule:nonzero;fill:rgb(97.254902%,97.254902%,97.254902%);fill-opacity:1;" d="M 45.542969 18.179688 C 45.589844 18.285156 45.609375 18.417969 45.597656 18.570312 C 45.550781 18.464844 45.53125 18.332031 45.542969 18.179688 Z M 45.542969 18.179688 " data-index="78"></path>

<path style="stroke: none; fill-rule: nonzero; fill: rgb(243, 244, 244); fill-opacity: 1; visibility: hidden;" d="M 71.351562 22.570312 C 71.460938 22.53125 71.578125 22.53125 71.738281 22.53125 C 71.691406 22.835938 71.542969 22.824219 71.351562 22.570312 Z M 71.351562 22.570312 " data-index="80"></path>
<path style=" stroke:none;fill-rule:nonzero;fill:rgb(95.294118%,95.686275%,96.470588%);fill-opacity:1;" d="M 95.953125 15.070312 C 95.90625 14.964844 95.886719 14.832031 95.894531 14.679688 C 95.945312 14.785156 95.960938 14.917969 95.953125 15.070312 Z M 95.953125 15.070312 " data-index="81"></path>

<path style="stroke: none; fill-rule: nonzero; fill: rgb(243, 244, 246); fill-opacity: 1; visibility: hidden;" d="M 96.976562 20.347656 C 96.964844 20.449219 96.917969 20.554688 96.832031 20.667969 C 96.84375 20.566406 96.890625 20.460938 96.976562 20.347656 Z M 96.976562 20.347656 " data-index="83"></path>
<path style=" stroke:none;fill-rule:nonzero;fill:rgb(95.294118%,95.686275%,95.686275%);fill-opacity:1;" d="M 74.066406 21.65625 C 73.980469 21.730469 73.898438 21.800781 73.777344 21.875 C 73.738281 21.875 73.738281 21.875 73.75 21.847656 C 73.789062 21.765625 73.816406 21.710938 73.847656 21.65625 C 73.847656 21.65625 73.847656 21.65625 73.882812 21.65625 C 73.96875 21.65625 74.015625 21.65625 74.066406 21.65625 Z M 74.066406 21.65625 " data-index="84"></path>
<path style=" stroke:none;fill-rule:nonzero;fill:rgb(94.509804%,94.901961%,95.294118%);fill-opacity:1;" d="M 74.574219 20.894531 C 74.609375 20.9375 74.609375 20.988281 74.609375 21.074219 C 74.558594 21.109375 74.511719 21.109375 74.425781 21.109375 C 74.441406 21.039062 74.488281 20.96875 74.574219 20.894531 Z M 74.574219 20.894531 " data-index="85"></path>

<path style=" stroke:none;fill-rule:nonzero;fill:rgb(94.509804%,94.901961%,95.294118%);fill-opacity:1;" d="M 74.066406 21.621094 C 74.015625 21.65625 73.96875 21.65625 73.882812 21.65625 C 73.894531 21.585938 73.945312 21.515625 74.03125 21.441406 C 74.066406 21.488281 74.066406 21.535156 74.066406 21.621094 Z M 74.066406 21.621094 " data-index="87"></path>

<path style="stroke: none; fill-rule: nonzero; fill: rgb(248, 248, 248); fill-opacity: 1; visibility: hidden;" d="M 48.523438 22.664062 C 48.566406 22.625 48.628906 22.609375 48.707031 22.617188 C 48.660156 22.65625 48.601562 22.671875 48.523438 22.664062 Z M 48.523438 22.664062 " data-index="89"></path>

<path style=" stroke:none;fill-rule:nonzero;fill:rgb(97.254902%,97.254902%,97.254902%);fill-opacity:1;" d="M 54.847656 19.792969 C 54.832031 19.734375 54.851562 19.675781 54.894531 19.597656 C 54.90625 19.648438 54.894531 19.71875 54.847656 19.792969 Z M 54.847656 19.792969 " data-index="91"></path>
<path style=" stroke:none;fill-rule:nonzero;fill:rgb(88.235295%,89.019608%,90.588236%);fill-opacity:1;" d="M 82.464844 20.75 C 82.371094 20.667969 82.277344 20.5625 82.226562 20.441406 C 81.886719 19.652344 81.605469 18.832031 81.203125 18.078125 C 80.800781 17.328125 80.566406 17.300781 79.789062 17.609375 C 79.753906 17.265625 79.753906 16.917969 79.839844 16.542969 C 80.144531 16.515625 80.363281 16.519531 80.582031 16.519531 C 81.578125 17.753906 82.300781 19.113281 82.464844 20.75 Z M 82.464844 20.75 " data-index="92"></path>
<path style=" stroke:none;fill-rule:nonzero;fill:rgb(89.803922%,89.803922%,89.803922%);fill-opacity:1;" d="M 85.761719 21.550781 C 85.617188 21.703125 85.433594 21.957031 85.230469 21.972656 C 84.546875 22.019531 83.855469 22.007812 83.171875 21.964844 C 82.996094 21.957031 82.835938 21.753906 82.660156 21.597656 C 83.675781 21.554688 84.691406 21.546875 85.761719 21.550781 Z M 85.761719 21.550781 " data-index="93"></path>
<path style=" stroke:none;fill-rule:nonzero;fill:rgb(89.803922%,89.803922%,89.803922%);fill-opacity:1;" d="M 79.5625 21.558594 C 79.433594 21.707031 79.261719 21.945312 79.074219 21.964844 C 78.5 22.019531 77.921875 22.011719 77.347656 21.96875 C 77.15625 21.953125 76.976562 21.757812 76.789062 21.605469 C 77.691406 21.5625 78.601562 21.554688 79.5625 21.558594 Z M 79.5625 21.558594 " data-index="94"></path>
<path style=" stroke:none;fill-rule:nonzero;fill:rgb(89.019608%,90.588236%,92.54902%);fill-opacity:1;" d="M 79.898438 12.484375 C 80.316406 12.84375 80.050781 13.265625 79.984375 13.671875 C 79.921875 14.070312 79.925781 14.421875 80.355469 14.660156 C 80.242188 14.878906 80.082031 15.09375 79.925781 15.304688 C 79.839844 15.261719 79.757812 15.214844 79.671875 15.167969 C 79.738281 14.285156 79.804688 13.398438 79.898438 12.484375 Z M 79.898438 12.484375 " data-index="95"></path>
<path style=" stroke:none;fill-rule:nonzero;fill:rgb(89.019608%,90.588236%,92.54902%);fill-opacity:1;" d="M 76.648438 13.734375 C 76.234375 13.402344 76.160156 12.96875 76.453125 12.484375 C 76.535156 12.859375 76.597656 13.273438 76.648438 13.734375 Z M 76.648438 13.734375 " data-index="96"></path>
<path style=" stroke:none;fill-rule:nonzero;fill:rgb(81.176472%,83.529413%,87.450981%);fill-opacity:1;" d="M 80.570312 16.480469 C 80.363281 16.519531 80.144531 16.515625 79.878906 16.515625 C 79.949219 16.386719 80.066406 16.261719 80.308594 16 C 80.40625 16.167969 80.484375 16.308594 80.570312 16.480469 Z M 80.570312 16.480469 " data-index="97"></path>
<path style="fill-rule: nonzero; fill: rgb(254, 254, 254); fill-opacity: 1; opacity: 1;" d="M 39.828125 20.507812 C 39.757812 20.421875 39.722656 20.316406 39.652344 20.285156 C 38.285156 19.675781 37.917969 18.492188 37.847656 17.136719 C 37.804688 16.238281 37.851562 15.351562 38.425781 14.59375 C 39.414062 13.292969 41.304688 13.683594 42.035156 14.71875 C 42.144531 14.867188 42.011719 15.195312 41.984375 15.476562 C 41.585938 15.519531 41.191406 15.507812 40.804688 15.546875 C 40.691406 15.558594 40.589844 15.71875 40.476562 15.902344 C 40.496094 16.429688 40.484375 16.878906 40.566406 17.304688 C 40.804688 18.476562 41.160156 19.660156 39.898438 20.515625 C 39.898438 20.515625 39.851562 20.523438 39.828125 20.507812 Z M 39.828125 20.507812 " data-index="98"></path>

<path style=" stroke:none;fill-rule:nonzero;fill:rgb(88.235295%,89.019608%,90.588236%);fill-opacity:1;" d="M 42.964844 14.175781 C 42.554688 14.027344 42.109375 13.882812 41.730469 13.644531 C 40.632812 12.949219 39.46875 12.910156 38.472656 13.714844 C 38.070312 14.035156 37.832031 14.5625 37.535156 15.003906 C 37.425781 15.164062 37.359375 15.347656 37.238281 15.523438 C 37.296875 14.292969 37.761719 13.238281 38.945312 12.730469 C 40.179688 12.203125 41.324219 12.539062 42.316406 13.402344 C 42.558594 13.613281 42.746094 13.894531 42.964844 14.175781 Z M 42.964844 14.175781 " data-index="100"></path>
<path style="fill-rule: nonzero; fill: rgb(241, 242, 244); fill-opacity: 1; opacity: 1;" d="M 39.9375 20.527344 C 41.160156 19.660156 40.804688 18.476562 40.566406 17.304688 C 40.484375 16.878906 40.496094 16.429688 40.476562 15.945312 C 41.074219 15.945312 41.359375 16.289062 41.367188 16.859375 C 41.382812 17.6875 41.433594 18.523438 41.363281 19.347656 C 41.289062 20.269531 40.898438 20.558594 39.9375 20.527344 Z M 39.9375 20.527344 " data-index="101"></path>
<path style=" stroke:none;fill-rule:nonzero;fill:rgb(87.843138%,88.627452%,89.803922%);fill-opacity:1;" d="M 73.371094 21.21875 C 73.046875 21.832031 72.371094 21.902344 71.789062 22.054688 C 70.652344 22.351562 69.488281 22.285156 68.394531 21.835938 C 68.03125 21.6875 67.753906 21.324219 67.4375 21.019531 C 69.363281 22.046875 71.328125 22.046875 73.371094 21.21875 Z M 73.371094 21.21875 " data-index="102"></path>
<path style=" stroke:none;fill-rule:nonzero;fill:rgb(93.333334%,93.725491%,94.117647%);fill-opacity:1;" d="M 75.113281 12.160156 C 75.394531 12.867188 75.148438 13.53125 74.890625 14.207031 C 74.832031 13.738281 74.785156 13.257812 74.8125 12.78125 C 74.824219 12.574219 74.980469 12.375 75.113281 12.160156 Z M 75.113281 12.160156 " data-index="103"></path>
<path style=" stroke:none;fill-rule:nonzero;fill:rgb(91.37255%,92.156863%,92.941177%);fill-opacity:1;" d="M 66.660156 14.171875 C 66.328125 13.863281 66.265625 12.867188 66.578125 12.46875 C 66.636719 13.007812 66.652344 13.566406 66.660156 14.171875 Z M 66.660156 14.171875 " data-index="104"></path>
<path style=" stroke:none;fill-rule:nonzero;fill:rgb(91.37255%,92.156863%,92.941177%);fill-opacity:1;" d="M 66.441406 18.003906 C 66.410156 17.90625 66.390625 17.765625 66.40625 17.617188 C 66.445312 17.726562 66.449219 17.84375 66.441406 18.003906 Z M 66.441406 18.003906 " data-index="105"></path>
<path style=" stroke:none;fill-rule:nonzero;fill:rgb(91.37255%,92.156863%,92.941177%);fill-opacity:1;" d="M 66.554688 15.933594 C 66.492188 15.933594 66.4375 15.898438 66.386719 15.863281 C 66.421875 15.828125 66.453125 15.792969 66.519531 15.753906 C 66.554688 15.796875 66.558594 15.847656 66.554688 15.933594 Z M 66.554688 15.933594 " data-index="106"></path>
<path style=" stroke:none;fill-rule:nonzero;fill:rgb(90.196079%,90.980393%,92.156863%);fill-opacity:1;" d="M 95.355469 20.039062 C 95.355469 20.207031 95.375 20.429688 95.285156 20.585938 C 94.664062 21.640625 93.625 22.078125 92.515625 22.28125 C 91.339844 22.5 90.144531 22.449219 89.027344 21.976562 C 88.257812 21.648438 87.582031 21.179688 87.429688 20.246094 C 87.734375 20.496094 88.007812 20.761719 88.300781 21.101562 C 88.5 21.335938 88.65625 21.582031 88.863281 21.644531 C 89.597656 21.863281 90.34375 22.105469 91.101562 22.167969 C 91.535156 22.203125 91.996094 21.902344 92.445312 21.753906 C 93.0625 21.527344 93.71875 21.367188 94.289062 21.054688 C 94.695312 20.832031 94.984375 20.398438 95.355469 20.039062 Z M 95.355469 20.039062 " data-index="107"></path>
<path style=" stroke:none;fill-rule:nonzero;fill:rgb(87.058824%,88.235295%,89.411765%);fill-opacity:1;" d="M 92.394531 21.75 C 91.996094 21.902344 91.535156 22.203125 91.101562 22.167969 C 90.34375 22.105469 89.597656 21.863281 88.863281 21.644531 C 88.65625 21.582031 88.5 21.335938 88.320312 21.132812 C 89.582031 21.800781 90.949219 21.851562 92.394531 21.75 Z M 92.394531 21.75 " data-index="108"></path>
<path style=" stroke:none;fill-rule:nonzero;fill:rgb(93.333334%,93.725491%,94.117647%);fill-opacity:1;" d="M 96.15625 12.105469 C 96.136719 12.128906 96.105469 12.125 96.039062 12.105469 C 96.027344 12.074219 96.058594 12.054688 96.113281 12.035156 C 96.140625 12.03125 96.152344 12.082031 96.15625 12.105469 Z M 96.15625 12.105469 " data-index="109"></path>
<path style=" stroke:none;fill-rule:nonzero;fill:rgb(93.725491%,94.117647%,94.117647%);fill-opacity:1;" d="M 100.753906 12.210938 C 100.800781 12.734375 100.828125 13.289062 100.816406 13.835938 C 100.792969 14.960938 100.707031 16.085938 100.722656 17.210938 C 100.738281 18.257812 100.855469 19.304688 100.929688 20.394531 C 100.777344 20.226562 100.496094 20.015625 100.492188 19.800781 C 100.464844 17.515625 100.476562 15.230469 100.496094 12.945312 C 100.5 12.707031 100.640625 12.472656 100.753906 12.210938 Z M 100.753906 12.210938 " data-index="110"></path>
<path style="stroke: none; fill-rule: nonzero; fill: rgb(6, 86, 191); fill-opacity: 1; opacity: 1;" d="M 22.839844 12.253906 C 22.53125 12.382812 22.226562 12.511719 21.851562 12.667969 C 20.375 13.265625 18.972656 13.847656 17.5625 14.402344 C 17.101562 14.585938 16.617188 14.789062 16.136719 14.804688 C 15.769531 14.816406 15.398438 14.539062 15.03125 14.394531 C 13.605469 13.824219 12.179688 13.257812 10.753906 12.691406 C 10.109375 12.40625 9.457031 12.144531 8.828125 11.828125 C 8.636719 11.730469 8.394531 11.488281 8.394531 11.3125 C 8.398438 11.132812 8.636719 10.875 8.828125 10.792969 C 11.160156 9.8125 13.5 8.84375 15.851562 7.90625 C 16.117188 7.800781 16.5 7.796875 16.765625 7.902344 C 19.113281 8.839844 21.453125 9.8125 23.789062 10.78125 C 24.332031 11.003906 24.386719 11.269531 24.066406 11.730469 C 23.964844 11.875 23.917969 12.085938 23.917969 12.269531 C 23.90625 13.941406 23.910156 15.617188 23.867188 17.351562 C 23.679688 17.402344 23.53125 17.398438 23.382812 17.339844 C 23.382812 15.550781 23.382812 13.816406 23.382812 12.007812 C 23.128906 12.121094 22.984375 12.1875 22.839844 12.253906 Z M 22.839844 12.253906 " data-index="111"></path>
<path style="stroke: none; fill-rule: nonzero; fill: rgb(5, 86, 191); fill-opacity: 1; opacity: 1;" d="M 21.847656 13.332031 C 21.855469 14.496094 21.878906 15.660156 21.859375 16.820312 C 21.855469 17.023438 21.714844 17.269531 21.5625 17.414062 C 18.699219 20.136719 13.898438 20.136719 11.054688 17.410156 C 10.882812 17.246094 10.761719 16.945312 10.753906 16.707031 C 10.726562 15.617188 10.746094 14.527344 10.800781 13.386719 C 10.964844 13.355469 11.078125 13.355469 11.175781 13.394531 C 12.507812 13.949219 13.835938 14.507812 15.167969 15.0625 C 15.75 15.308594 16.316406 15.5625 16.980469 15.257812 C 17.8125 14.875 18.671875 14.535156 19.527344 14.199219 C 20.292969 13.894531 21.070312 13.621094 21.847656 13.332031 Z M 21.847656 13.332031 " data-index="112"></path>
<path style="stroke: none; fill-rule: nonzero; fill: rgb(244, 78, 14); fill-opacity: 1; opacity: 1;" d="M 23.382812 17.390625 C 23.53125 17.398438 23.679688 17.402344 23.867188 17.402344 C 24.90625 17.460938 24.917969 17.472656 24.917969 18.496094 C 24.917969 19.296875 24.917969 20.097656 24.859375 20.949219 C 24.4375 20.996094 24.074219 21 23.710938 20.996094 C 23.046875 20.996094 22.851562 20.796875 22.84375 20.117188 C 22.835938 19.222656 22.835938 18.328125 22.835938 17.4375 C 22.835938 17.4375 22.824219 17.40625 22.863281 17.398438 C 22.902344 17.394531 22.953125 17.378906 22.992188 17.394531 C 23.152344 17.402344 23.265625 17.398438 23.382812 17.390625 Z M 23.382812 17.390625 " data-index="113"></path>
<path style=" stroke:none;fill-rule:nonzero;fill:rgb(0%,27.843139%,53.725493%);fill-opacity:1;" d="M 21.855469 13.289062 C 21.070312 13.621094 20.292969 13.894531 19.527344 14.199219 C 18.671875 14.535156 17.8125 14.875 16.980469 15.257812 C 16.316406 15.5625 15.75 15.308594 15.167969 15.0625 C 13.835938 14.507812 12.507812 13.949219 11.175781 13.394531 C 11.078125 13.355469 10.964844 13.355469 10.816406 13.335938 C 10.761719 13.148438 10.75 12.964844 10.746094 12.738281 C 12.179688 13.257812 13.605469 13.824219 15.03125 14.394531 C 15.398438 14.539062 15.769531 14.816406 16.136719 14.804688 C 16.617188 14.789062 17.101562 14.585938 17.5625 14.402344 C 18.972656 13.847656 20.375 13.265625 21.824219 12.691406 C 21.863281 12.875 21.867188 13.058594 21.855469 13.289062 Z M 21.855469 13.289062 " data-index="114"></path>
<path style="stroke: none; fill-rule: nonzero; fill: rgb(205, 41, 5); fill-opacity: 1; opacity: 1;" d="M 22.785156 17.429688 C 22.835938 18.328125 22.835938 19.222656 22.84375 20.117188 C 22.851562 20.796875 23.046875 20.996094 23.710938 20.996094 C 24.074219 21 24.4375 20.996094 24.851562 21 C 24.875 21.257812 24.84375 21.519531 24.800781 21.820312 C 23.929688 21.898438 23.074219 21.9375 22.171875 21.96875 C 22.035156 21.722656 21.878906 21.480469 21.871094 21.234375 C 21.84375 20.253906 21.859375 19.273438 21.859375 18.292969 C 21.859375 17.527344 21.964844 17.425781 22.785156 17.429688 Z M 22.785156 17.429688 " data-index="115"></path>
<path style=" stroke:none;fill-rule:nonzero;fill:rgb(0%,27.843139%,52.941179%);fill-opacity:1;" d="M 23.382812 17.339844 C 23.265625 17.398438 23.152344 17.402344 22.988281 17.375 C 22.929688 17.316406 22.914062 17.296875 22.886719 17.285156 C 22.875 15.644531 22.867188 14 22.847656 12.304688 C 22.984375 12.1875 23.128906 12.121094 23.382812 12.007812 C 23.382812 13.816406 23.382812 15.550781 23.382812 17.339844 Z M 23.382812 17.339844 " data-index="116"></path>
<path style=" stroke:none;fill-rule:nonzero;fill:rgb(2.352941%,33.725491%,74.901962%);fill-opacity:1;" d="M 22.875 17.308594 C 22.914062 17.296875 22.929688 17.316406 22.945312 17.359375 C 22.953125 17.378906 22.902344 17.394531 22.875 17.390625 C 22.847656 17.382812 22.859375 17.332031 22.875 17.308594 Z M 22.875 17.308594 " data-index="117"></path>

<path style=" stroke:none;fill-rule:nonzero;fill:rgb(94.509804%,94.901961%,95.294118%);fill-opacity:1;" d="M 73.808594 21.65625 C 73.816406 21.710938 73.789062 21.765625 73.75 21.847656 C 73.691406 21.875 73.640625 21.875 73.554688 21.875 C 73.601562 21.800781 73.6875 21.730469 73.808594 21.65625 Z M 73.808594 21.65625 " data-index="119"></path>
</g>
</svg>