<?xml version="1.0" encoding="UTF-8"?>
<svg xmlns="http://www.w3.org/2000/svg" xmlns:xlink="http://www.w3.org/1999/xlink" width="34px" height="34px" viewBox="0 0 34 34" version="1.1">
<g id="surface1">
<path style=" stroke:none;fill-rule:nonzero;fill:rgb(1.568628%,33.333334%,74.901962%);fill-opacity:1;" d="M 31.34375 26.03125 L 2.65625 26.03125 C 2.363281 26.03125 2.125 25.792969 2.125 25.5 L 2.125 4.25 C 2.125 3.957031 2.363281 3.71875 2.65625 3.71875 L 31.34375 3.71875 C 31.636719 3.71875 31.875 3.957031 31.875 4.25 L 31.875 25.5 C 31.875 25.792969 31.636719 26.03125 31.34375 26.03125 Z M 31.34375 26.03125 "/>
<path style=" stroke:none;fill-rule:nonzero;fill:rgb(0%,27.843139%,52.941179%);fill-opacity:1;" d="M 24.4375 24.96875 C 12.703125 24.96875 3.1875 15.453125 3.1875 3.71875 L 2.65625 3.71875 C 2.363281 3.71875 2.125 3.957031 2.125 4.25 L 2.125 25.5 C 2.125 25.792969 2.363281 26.03125 2.65625 26.03125 L 31.34375 26.03125 C 31.636719 26.03125 31.875 25.792969 31.875 25.5 L 31.875 24.96875 Z M 24.4375 24.96875 "/>
<path style=" stroke:none;fill-rule:nonzero;fill:rgb(99.215686%,99.607843%,100%);fill-opacity:1;" d="M 29.21875 23.90625 L 4.78125 23.90625 C 4.488281 23.90625 4.25 23.667969 4.25 23.375 L 4.25 6.375 C 4.25 6.082031 4.488281 5.84375 4.78125 5.84375 L 29.21875 5.84375 C 29.511719 5.84375 29.75 6.082031 29.75 6.375 L 29.75 23.375 C 29.75 23.667969 29.511719 23.90625 29.21875 23.90625 Z M 29.21875 23.90625 "/>
<path style=" stroke:none;fill-rule:nonzero;fill:rgb(87.450981%,91.764706%,93.725491%);fill-opacity:1;" d="M 22.3125 22.84375 C 12.921875 22.84375 5.3125 15.234375 5.3125 5.84375 L 4.78125 5.84375 C 4.488281 5.84375 4.25 6.082031 4.25 6.375 L 4.25 23.375 C 4.25 23.667969 4.488281 23.90625 4.78125 23.90625 L 29.21875 23.90625 C 29.511719 23.90625 29.75 23.667969 29.75 23.375 L 29.75 22.84375 Z M 22.3125 22.84375 "/>
<path style=" stroke:none;fill-rule:nonzero;fill:rgb(1.568628%,33.333334%,74.901962%);fill-opacity:1;" d="M 23.90625 11.6875 L 24.96875 11.6875 L 24.96875 19.125 L 23.90625 19.125 Z M 23.90625 11.6875 "/>
<path style=" stroke:none;fill-rule:nonzero;fill:rgb(0%,27.843139%,52.941179%);fill-opacity:1;" d="M 23.90625 12.21875 L 24.4375 12.21875 L 24.4375 19.65625 L 23.90625 19.65625 Z M 23.90625 12.21875 "/>
<path style=" stroke:none;fill-rule:nonzero;fill:rgb(96.862745%,30.588236%,4.705882%);fill-opacity:1;" d="M 25.5 22.84375 L 23.375 22.84375 C 23.082031 22.84375 22.84375 22.605469 22.84375 22.3125 L 22.84375 18.59375 C 22.84375 18.300781 23.082031 18.0625 23.375 18.0625 L 25.5 18.0625 C 25.792969 18.0625 26.03125 18.300781 26.03125 18.59375 L 26.03125 22.3125 C 26.03125 22.605469 25.792969 22.84375 25.5 22.84375 Z M 25.5 22.84375 "/>
<path style=" stroke:none;fill-rule:nonzero;fill:rgb(80.000001%,14.901961%,0%);fill-opacity:1;" d="M 24.4375 21.78125 C 24.144531 21.78125 23.90625 21.542969 23.90625 21.25 L 23.90625 18.0625 L 23.375 18.0625 C 23.082031 18.0625 22.84375 18.300781 22.84375 18.59375 L 22.84375 22.3125 C 22.84375 22.605469 23.082031 22.84375 23.375 22.84375 L 25.5 22.84375 C 25.792969 22.84375 26.03125 22.605469 26.03125 22.3125 L 26.03125 21.78125 Z M 24.4375 21.78125 "/>
<path style=" stroke:none;fill-rule:nonzero;fill:rgb(1.568628%,33.333334%,74.901962%);fill-opacity:1;" d="M 21.78125 12.75 L 11.15625 12.75 L 11.15625 17.53125 C 11.15625 17.675781 11.214844 17.816406 11.320312 17.914062 C 14.5 20.945312 19.5 20.945312 22.679688 17.914062 C 22.785156 17.816406 22.84375 17.675781 22.84375 17.53125 L 22.84375 12.75 Z M 21.78125 12.75 "/>
<path style=" stroke:none;fill-rule:nonzero;fill:rgb(1.568628%,33.333334%,74.901962%);fill-opacity:1;" d="M 21.78125 12.75 L 11.15625 12.75 L 11.15625 17.53125 C 11.15625 17.675781 11.214844 17.816406 11.320312 17.914062 C 14.5 20.945312 19.5 20.945312 22.679688 17.914062 C 22.785156 17.816406 22.84375 17.675781 22.84375 17.53125 L 22.84375 12.75 Z M 21.78125 12.75 "/>
<path style=" stroke:none;fill-rule:nonzero;fill:rgb(0%,27.843139%,52.941179%);fill-opacity:1;" d="M 22.84375 12.21875 L 11.15625 12.21875 L 11.15625 13.6875 L 16.394531 15.832031 C 16.78125 15.988281 17.214844 15.988281 17.601562 15.832031 L 22.84375 13.6875 Z M 22.84375 12.21875 "/>
<path style=" stroke:none;fill-rule:nonzero;fill:rgb(1.568628%,33.333334%,74.901962%);fill-opacity:1;" d="M 17 15.417969 C 16.929688 15.417969 16.863281 15.402344 16.800781 15.378906 L 8.976562 12.179688 C 8.777344 12.097656 8.648438 11.902344 8.648438 11.6875 C 8.648438 11.472656 8.777344 11.277344 8.976562 11.195312 L 16.800781 7.996094 C 16.929688 7.945312 17.074219 7.945312 17.203125 7.996094 L 25.027344 11.195312 C 25.226562 11.277344 25.359375 11.472656 25.359375 11.6875 C 25.359375 11.902344 25.226562 12.097656 25.027344 12.179688 L 17.203125 15.378906 C 17.140625 15.402344 17.070312 15.417969 17 15.417969 Z M 17 15.417969 "/>
<path style=" stroke:none;fill-rule:nonzero;fill:rgb(1.568628%,33.333334%,74.901962%);fill-opacity:1;" d="M 28.15625 30.28125 L 5.84375 30.28125 C 3.203125 30.277344 1.066406 28.140625 1.0625 25.5 C 1.0625 25.207031 1.300781 24.96875 1.59375 24.96875 L 32.40625 24.96875 C 32.699219 24.96875 32.9375 25.207031 32.9375 25.5 C 32.933594 28.140625 30.796875 30.277344 28.15625 30.28125 Z M 28.15625 30.28125 "/>
<path style=" stroke:none;fill-rule:nonzero;fill:rgb(0%,27.843139%,52.941179%);fill-opacity:1;" d="M 29.21875 29.21875 L 6.90625 29.21875 C 4.472656 29.214844 2.429688 27.386719 2.15625 24.96875 L 1.59375 24.96875 C 1.300781 24.96875 1.0625 25.207031 1.0625 25.5 C 1.066406 28.140625 3.203125 30.277344 5.84375 30.28125 L 28.15625 30.28125 C 29.6875 30.28125 31.125 29.542969 32.023438 28.304688 C 31.207031 28.898438 30.226562 29.21875 29.21875 29.21875 Z M 29.21875 29.21875 "/>
<path style=" stroke:none;fill-rule:nonzero;fill:rgb(99.607843%,73.725492%,0%);fill-opacity:1;" d="M 20.71875 26.5625 L 13.28125 26.5625 L 12.21875 24.96875 L 21.78125 24.96875 Z M 20.71875 26.5625 "/>
<path style=" stroke:none;fill-rule:nonzero;fill:rgb(92.941177%,66.666669%,1.176471%);fill-opacity:1;" d="M 13.105469 24.96875 L 12.21875 24.96875 L 13.28125 26.5625 L 20.71875 26.5625 L 21.074219 26.03125 L 15.085938 26.03125 C 14.289062 26.03125 13.546875 25.632812 13.105469 24.96875 Z M 13.105469 24.96875 "/>
</g>
</svg>
